<?xml version="1.0" encoding="UTF-8"?>
<svg xmlns="http://www.w3.org/2000/svg" viewBox="96.308 326.145 210.008 279.520" role="img" aria-label="Hessen">
  <path fill="#ffffff" stroke="rgba(1, 97, 191, 0.22)" stroke-width="1.4" stroke-linejoin="round" stroke-linecap="round" d="M 262.476,379.055 L 262.275,379.965 L 262.422,380.969 L 262.999,383.137 L 264.441,386.582 L 265.652,388.104 L 269.061,389.351 L 270.95,390.155 L 271.865,393.052 L 276.423,395.366 L 278.077,395.928 L 278.895,396.425 L 279.477,396.901 L 280.789,398.191 L 282.031,398.487 L 282.316,399.1 L 281.99,399.893 L 281.382,400.336 L 281.011,400.517 L 280.678,400.823 L 280.255,402.156 L 280.287,402.41 L 280.646,402.948 L 280.851,402.918 L 280.893,404.693 L 280.851,405.487 L 280.666,405.709 L 280.095,405.709 L 279.724,405.012 L 279.735,404.969 L 279.458,404.526 L 279.098,403.204 L 278.046,402.126 L 275.434,402.762 L 274.979,403.331 L 275.086,403.598 L 276.434,406.462 L 277.046,407.688 L 277.253,412.003 L 279.055,412.656 L 279.95,413.26 L 280.15,413.473 L 280.659,414 L 281.181,414.94 L 281.011,415.437 L 280.424,416.589 L 280.571,416.779 L 280.021,417.434 L 279.748,417.593 L 279.233,417.792 L 279.053,417.75 L 278.811,417.928 L 277.099,418.161 L 276.685,418.215 L 276.22,418.079 L 275.929,417.853 L 275.633,417.497 L 274.348,416.798 L 272.054,416.482 L 270.621,416.334 L 269.76,416.439 L 269.495,416.566 L 269.347,416.67 L 269.201,416.968 L 268.593,418.237 L 270.057,423.05 L 271.025,428.958 L 271.046,429.752 L 269.422,433.854 L 268.709,435.008 L 267.329,435.049 L 265.706,434.838 L 265.246,435.165 L 264.151,436.055 L 264.013,436.403 L 263.654,438.199 L 263.665,438.762 L 264.046,439.471 L 264.142,440.445 L 264.153,440.91 L 264.025,441.056 L 263.761,441.151 L 262.413,441.575 L 263.338,442.707 L 263.507,444.177 L 263.507,444.504 L 263.029,445.742 L 261.783,448.417 L 260.391,450.13 L 259.715,451.104 L 259.413,451.547 L 259.338,454.198 L 259.401,455.129 L 262.673,455.711 L 263.757,455.893 L 264.682,455.704 L 265.221,454.456 L 263.992,452.933 L 263.949,452.32 L 264.186,452.005 L 266.618,451.054 L 267.103,450.927 L 269.26,451.054 L 270.534,451.181 L 270.83,451.424 L 271.606,452.778 L 272.346,454.84 L 270.543,456.353 L 270.332,456.584 L 269.935,457.219 L 269.766,457.59 L 269.967,467.296 L 270.01,468.058 L 269.702,469.707 L 269.235,471.016 L 268.31,472.404 L 264.785,476.197 L 263.192,477.119 L 261.982,478.1 L 260.814,478.819 L 259.614,479.316 L 258.071,479.499 L 255.829,478.565 L 255.067,477.961 L 251.509,478.999 L 251.16,480.584 L 250.594,482.732 L 250.436,483.059 L 249.753,483.691 L 250.445,484.697 L 250.699,485.259 L 250.784,486.897 L 250.699,488.007 L 250.583,488.4 L 250.149,489.204 L 249.382,489.965 L 247.77,491.425 L 247.045,491.707 L 246.949,491.742 L 246.265,491.742 L 244.558,492.353 L 244.431,492.521 L 244.104,493.062 L 243.412,494.342 L 242.475,496.718 L 242.4,497.141 L 242.274,497.247 L 240.683,497.353 L 239.907,497.372 L 236.855,496.594 L 235.766,496.224 L 234.578,498.748 L 234.224,502.162 L 234.894,506.225 L 235.138,507.45 L 235.573,508.487 L 235.573,509.291 L 235.172,510.477 L 230.065,511.396 L 228.716,511.544 L 228.521,511.544 L 227.981,511.11 L 226.123,506.797 L 226.016,506.67 L 225.709,506.584 L 216.013,504.692 L 202.543,508.393 L 202.416,508.487 L 201.896,509.098 L 201.162,510.284 L 200.696,512.767 L 200.048,514.08 L 201.343,515.2 L 201.645,515.136 L 202.226,515.157 L 202.739,515.316 L 202.877,515.38 L 203.193,515.654 L 203.333,515.927 L 203.691,519.818 L 202.11,520.705 L 202.46,521.184 L 202.502,521.405 L 202.877,524.43 L 203.025,527.284 L 203.121,529.346 L 203.502,532.393 L 203.606,532.614 L 204.32,533.565 L 203.405,533.461 L 203.193,533.515 L 203.224,534.148 L 203.34,535.586 L 203.437,535.978 L 203.702,536.262 L 208.057,540.618 L 208.45,540.639 L 209.225,540.808 L 209.458,540.88 L 209.638,541.007 L 210.817,546.315 L 209.195,550.629 L 208.699,550.872 L 207.34,554.595 L 206.522,561.562 L 207.416,563.2 L 207.242,564.841 L 207.331,564.925 L 206.945,565.908 L 206.798,566.13 L 206.258,566.563 L 207.871,567.431 L 208.219,567.686 L 208.784,569.07 L 208.773,569.492 L 208.483,569.917 L 207.562,570.16 L 206.083,568.437 L 204.939,568.169 L 199.299,569.979 L 199.055,570.094 L 198.013,570.835 L 196.427,572.664 L 196.047,573.373 L 195.845,574.009 L 196.586,574.686 L 197.141,575.529 L 190.661,581.45 L 190.406,581.633 L 190.28,581.665 L 188.415,581.579 L 187.934,581.485 L 187.342,580.839 L 187.04,579.971 L 187.414,579.117 L 189.176,575.372 L 191.481,574.569 L 193.806,572.464 L 193.606,571.218 L 193.764,570.573 L 191.375,570.573 L 184.877,569.293 L 184.417,569.136 L 182.111,568.11 L 180.658,567.117 L 178.787,559.482 L 179.15,559.282 L 179.246,559.471 L 179.681,559.63 L 179.785,559.515 L 180.299,558.52 L 180.172,558.044 L 179.204,557.821 L 175.27,558.804 L 173.561,559.29 L 173.265,559.894 L 173.308,560.708 L 173.519,561.099 L 174.149,561.003 L 175.046,565.063 L 175.046,565.57 L 174.942,566.109 L 174.275,567.2 L 172.543,568.562 L 171.605,568.605 L 171.31,568.521 L 170.855,568.341 L 169.941,567.653 L 169.31,566.797 L 168.931,565.612 L 166.89,562.989 L 165.436,561.721 L 164.886,561.255 L 163.886,561.14 L 163.602,561.161 L 163.289,561.234 L 162.248,561.742 L 162.089,561.825 L 161.583,560.64 L 159.991,558.25 L 159.489,557.331 L 157.885,552.183 L 157.78,551.727 L 157.949,550.755 L 158.023,550.513 L 158.224,550.142 L 158.34,550.015 L 158.969,549.529 L 159.52,549.179 L 160,548.949 L 160.698,548.682 L 162.204,548.355 L 162.591,548.196 L 163.003,547.965 L 163.479,547.586 L 163.885,546.982 L 163.97,546.793 L 164.118,546.496 L 164.737,545.478 L 164.391,543.143 L 161.599,540.226 L 161.077,539.242 L 160.074,537.804 L 159.771,537.307 L 157.54,531.672 L 157.351,530.877 L 157.351,530.487 L 157.467,529.96 L 157.6,529.61 L 157.949,529.039 L 158.257,528.393 L 158.32,528.057 L 158.341,527.56 L 158.214,527.011 L 157.622,525.108 L 157.59,524.157 L 157.109,522.981 L 156.643,522.168 L 156.269,521.607 L 155.55,520.761 L 154.275,519.598 L 153.499,518.436 L 153.056,517.79 L 152.365,517.037 L 151.206,515.93 L 150.625,515.687 L 148.774,515.295 L 147.722,515.149 L 146.807,515.212 L 144.28,516.025 L 140.14,517.918 L 133.119,520.606 L 132.823,520.69 L 130.835,521.005 L 127.5,521.11 L 127.148,521.069 L 126.875,520.983 L 126.404,520.656 L 120.991,513.087 L 120.308,511.152 L 121.253,510.95 L 123.246,509.83 L 127.4,506.362 L 127.783,506.51 L 130.097,507.154 L 130.398,506.753 L 130.78,503.762 L 130.653,503.403 L 129.654,502.505 L 128.866,501.901 L 128.346,501.586 L 127.982,501.065 L 127.919,499.743 L 127.994,499.618 L 129.515,497.61 L 130.098,497.186 L 130.442,497.006 L 134.784,495.125 L 136.623,496.202 L 137.622,496.443 L 137.919,496.434 L 139.595,494.574 L 139.499,494.404 L 139.129,494.139 L 137.458,492.511 L 137.226,492.034 L 138.215,490.733 L 139.107,490.459 L 139.774,490.543 L 141.87,491.398 L 143.868,490.248 L 143.846,488.322 L 143.774,487.921 L 143.04,485.682 L 142.966,485.511 L 142.766,485.11 L 140.112,480.256 L 134.832,476.735 L 134.322,476.724 L 134.609,475.953 L 136.365,471.007 L 135.63,470.032 L 135.096,468.741 L 135.086,468.414 L 135.557,465.982 L 136.085,464.916 L 138.474,462.07 L 138.85,461.932 L 139.454,461.764 L 139.761,461.794 L 140.971,462.279 L 141.473,463.327 L 142.494,463.675 L 143.567,463.887 L 144.329,463.783 L 144.518,463.348 L 145.295,461.498 L 145.568,460.833 L 146.303,459.032 L 146.685,457.847 L 146.674,457.257 L 145.505,456.589 L 145.146,456.379 L 145.018,456.124 L 144.093,451.261 L 144.104,450.331 L 144.167,449.78 L 144.314,449.368 L 145.198,448.363 L 145.931,447.37 L 147.934,443.648 L 147.99,443.299 L 147.808,442.348 L 147.004,441.226 L 146.237,439.712 L 145.845,438.89 L 145.427,437.884 L 154.912,428.623 L 155.112,428.453 L 155.306,428.422 L 156.28,428.453 L 156.465,428.516 L 160.553,430.672 L 160.732,430.725 L 161.277,430.609 L 161.394,430.484 L 162.519,429.278 L 166.807,422.806 L 167.405,420.217 L 167.46,420.089 L 167.859,419.856 L 167.955,419.805 L 168.553,419.794 L 168.711,419.856 L 168.447,419.486 L 168.435,419.246 L 168.52,419.087 L 169.376,418.156 L 170.814,416.601 L 171.803,415.733 L 172.196,415.366 L 172.672,414.636 L 172.303,413.759 L 171.63,412.299 L 170.567,409.023 L 170.472,408.714 L 170.472,408.525 L 170.91,407.891 L 171.437,407.437 L 172.205,406.791 L 172.332,406.717 L 173.596,406.24 L 173.743,406.125 L 176.551,406.305 L 178.259,406.579 L 179.015,406.886 L 180.131,407.151 L 180.574,407.13 L 183.762,405.901 L 186.597,399.684 L 186.871,399.029 L 186.943,398.648 L 186.786,396.608 L 186.036,390.19 L 185.925,389.936 L 185.069,388.773 L 184.156,388.752 L 183.452,388.815 L 178.885,390.868 L 177.923,391.523 L 177.818,391.554 L 177.061,391.511 L 176.755,391.407 L 176.537,391.193 L 174.47,388.307 L 175.041,387.451 L 177.651,383.698 L 178.747,382.344 L 179.832,381.636 L 182.787,379.754 L 187.766,378.221 L 191.537,377.216 L 195.703,377.122 L 199.143,377.344 L 199.292,377.29 L 200.115,374.837 L 199.904,373.483 L 199.861,373.261 L 199.553,373.091 L 199.01,372.965 L 196.492,368.819 L 196.31,368.165 L 196.31,367.722 L 196.995,367.034 L 199.849,365.817 L 201.436,365.278 L 203.662,364.728 L 204.831,364.674 L 207.755,365.911 L 208.934,367.867 L 208.22,369.642 L 208.785,371.271 L 208.955,371.514 L 209.228,371.693 L 209.847,371.894 L 212.607,372.075 L 213.2,371.979 L 213.798,370.974 L 214.448,369.927 L 218.766,366.448 L 223.228,362.96 L 226.469,357.642 L 230.313,353.034 L 231.608,350.854 L 234.88,350.145 L 235.155,350.201 L 235.301,350.412 L 235.333,350.793 L 235.09,351.331 L 234.878,352.155 L 234.92,352.495 L 235.227,352.895 L 235.953,353.338 L 236.65,353.434 L 239.848,353.487 L 240.815,353.466 L 244.226,355.211 L 244.298,355.315 L 245.722,356.871 L 246.414,357.452 L 247.239,357.979 L 247.418,358.169 L 247.593,358.57 L 247.27,359.406 L 247.155,359.575 L 247.051,359.575 L 246.389,359.385 L 245.66,359.989 L 245.073,360.782 L 244.891,361.141 L 243.365,361.406 L 240.931,364.123 L 240.785,364.439 L 240.773,364.535 L 240.827,364.695 L 242.889,368.215 L 243.439,368.818 L 243.79,370.405 L 244.546,374.709 L 244.451,374.92 L 243.706,376.063 L 242.42,376.01 L 240.809,376.284 L 240.296,376.369 L 239.223,378.059 L 239.022,378.494 L 238.514,380.492 L 238.441,380.807 L 238.949,381.59 L 239.609,382.742 L 241.338,383.303 L 246.629,385.502 L 249.986,387.161 L 250.124,387.393 L 252.438,386.199 L 252.712,385.013 L 252.809,384.537 L 252.734,383.173 L 252.661,383.026 L 252.147,383.048 L 250.429,383.872 L 248.653,381.092 L 249.738,379.59 L 254.135,375.89 L 254.569,375.615 L 254.744,375.574 L 257.949,375.119 L 261.042,374.707 L 261.327,374.877 L 262.579,376.904 L 262.917,377.498 L 262.96,378.671 L 262.917,378.809 L 262.476,379.055 z "><title>Hessen</title></path>
</svg>
