<?xml version="1.0" encoding="UTF-8"?>
<svg xmlns="http://www.w3.org/2000/svg" viewBox="-12.929 397.405 204.394 251.384" role="img" aria-label="Rheinland-Pfalz">
  <path fill="#ffffff" stroke="rgba(1, 97, 191, 0.22)" stroke-width="1.4" stroke-linejoin="round" stroke-linecap="round" d="M 145.208,448.327 L 144.325,449.334 L 144.178,449.744 L 144.115,450.295 L 144.104,451.225 L 145.029,456.09 L 145.155,456.343 L 145.515,456.556 L 146.685,457.221 L 146.695,457.814 L 146.314,458.998 L 145.58,460.795 L 145.306,461.46 L 144.529,463.314 L 144.34,463.745 L 143.579,463.853 L 142.505,463.641 L 141.484,463.291 L 140.983,462.245 L 139.771,461.759 L 139.465,461.727 L 138.861,461.897 L 138.485,462.033 L 136.095,464.877 L 135.566,465.945 L 135.096,468.379 L 135.101,468.705 L 135.641,469.995 L 136.376,470.968 L 134.62,475.915 L 134.334,476.689 L 134.842,476.698 L 140.123,480.219 L 142.777,485.073 L 142.977,485.472 L 143.051,485.642 L 143.786,487.884 L 143.858,488.282 L 143.879,490.207 L 141.881,491.361 L 139.786,490.506 L 139.119,490.419 L 138.225,490.694 L 137.237,491.994 L 137.465,492.472 L 139.142,494.102 L 139.512,494.365 L 139.607,494.533 L 137.93,496.394 L 137.634,496.405 L 136.636,496.163 L 134.796,495.084 L 130.456,496.967 L 130.11,497.148 L 129.528,497.57 L 128.002,499.579 L 127.934,499.707 L 127.993,501.028 L 128.362,501.545 L 128.882,501.863 L 129.67,502.467 L 130.669,503.364 L 130.796,503.722 L 130.414,506.713 L 130.112,507.114 L 127.799,506.47 L 127.417,506.322 L 123.257,509.79 L 121.269,510.912 L 120.323,511.11 L 121.007,513.045 L 126.42,520.618 L 126.891,520.945 L 127.165,521.029 L 127.515,521.07 L 130.851,520.966 L 132.839,520.648 L 133.134,520.563 L 140.155,517.877 L 144.298,515.995 L 146.823,515.169 L 147.738,515.106 L 148.791,515.253 L 150.642,515.646 L 151.223,515.888 L 152.38,516.997 L 153.072,517.746 L 153.515,518.392 L 154.292,519.555 L 155.566,520.716 L 156.284,521.565 L 156.659,522.126 L 157.126,522.939 L 157.606,524.113 L 157.637,525.063 L 158.23,526.966 L 158.356,527.517 L 158.336,528.014 L 158.272,528.352 L 157.965,529 L 157.617,529.566 L 157.483,529.919 L 157.368,530.445 L 157.368,530.838 L 157.557,531.63 L 159.788,537.268 L 160.089,537.763 L 161.094,539.201 L 161.616,540.185 L 164.408,543.101 L 164.752,545.44 L 164.134,546.454 L 163.986,546.749 L 163.903,546.94 L 163.496,547.544 L 163.019,547.926 L 162.607,548.158 L 162.22,548.317 L 160.714,548.643 L 160.015,548.907 L 159.535,549.151 L 158.985,549.488 L 158.355,549.974 L 158.24,550.101 L 158.04,550.471 L 157.965,550.714 L 157.796,551.688 L 157.901,552.142 L 159.505,557.289 L 160.007,558.211 L 161.599,560.601 L 162.105,561.786 L 162.021,562.928 L 161.62,563.625 L 161.493,564.122 L 161.472,564.544 L 161.514,564.914 L 161.619,565.223 L 162.043,566.068 L 163.137,570.488 L 163.222,571.112 L 163.651,574.305 L 163.414,574.486 L 163.191,574.718 L 163.076,575.024 L 163.087,575.381 L 163.213,575.625 L 163.372,575.805 L 163.631,576.028 L 163.861,576.134 L 164.444,576.238 L 165.104,576.209 L 166.104,576.178 L 166.665,576.282 L 167.024,576.441 L 167.368,576.842 L 167.465,577.159 L 167.454,577.476 L 166.676,579.571 L 166.846,581.863 L 166.899,582.72 L 166.857,583.289 L 166.613,584.22 L 166.232,585.067 L 165.645,585.935 L 165.149,586.451 L 164.706,586.792 L 164.257,587.099 L 163.737,587.584 L 163.514,587.9 L 163.383,588.227 L 163.351,588.428 L 163.383,588.863 L 163.525,589.241 L 163.715,589.467 L 163.927,589.605 L 164.958,589.954 L 165.201,590.093 L 165.551,590.408 L 165.781,590.768 L 165.903,591.306 L 165.856,591.728 L 165.75,591.953 L 164.392,592.649 L 162.631,594.618 L 162.14,595.061 L 160.698,595.991 L 160.147,596.329 L 159.635,596.772 L 159.275,597.205 L 158.99,597.746 L 158.81,598.359 L 158.757,599.066 L 158.778,599.108 L 158.875,599.108 L 159.045,599.066 L 159.203,600.866 L 156.791,611.153 L 156.61,611.67 L 156.163,612.399 L 155.475,613.245 L 155.464,613.256 L 154.486,614.315 L 153.772,615.373 L 153.413,616.029 L 152.959,617.214 L 152.764,618.111 L 152.563,619.517 L 152.489,619.814 L 152.393,620.129 L 151.97,621.069 L 151.685,621.599 L 151.372,622.051 L 150.971,622.463 L 149.898,623.311 L 148.307,624.547 L 147.9,624.789 L 147.615,624.199 L 147.446,623.912 L 147.299,623.815 L 143.814,623.393 L 143.498,623.531 L 142.51,623.573 L 141.659,623.403 L 138.644,622.187 L 137.016,621.438 L 136.9,621.152 L 136.239,620.348 L 135.52,619.628 L 130.53,617.216 L 127.278,616.286 L 125.929,616.17 L 124.95,615.705 L 120.045,614.965 L 116.624,615.748 L 116.328,615.821 L 114.383,615.916 L 110.507,615.694 L 107.615,614.592 L 103.146,611.846 L 102.232,611.242 L 100.833,610.048 L 98.741,606 L 98.753,605.207 L 98.942,603.97 L 98.753,602.554 L 95.555,600.937 L 93.186,601.351 L 91.188,601.707 L 90.099,601.992 L 90.063,602.498 L 90.122,602.784 L 90.31,603.071 L 89.332,603.082 L 89.067,602.869 L 88.91,602.648 L 87.111,600.056 L 86.217,598.851 L 85.196,595.806 L 85.228,595.214 L 85.238,595.057 L 86.238,593.735 L 89.097,591.8 L 90.476,591.112 L 91.08,590.846 L 91.455,590.413 L 92.036,589.567 L 92.569,587.282 L 92.024,586.797 L 92.003,586.702 L 92.717,582.356 L 93.321,581.921 L 92.877,581.541 L 91.635,582.102 L 90.911,582.29 L 85.889,579.414 L 85.91,579.044 L 86.184,577.565 L 86.08,576.733 L 83.561,575.048 L 83.414,574.657 L 83.233,573.664 L 83.213,573.516 L 83.593,573.243 L 85.258,572.734 L 85.739,567.51 L 85.61,563.103 L 85.547,562.268 L 85.526,562.066 L 85.065,561.049 L 84.707,560.32 L 84.526,560.014 L 84.098,560.436 L 82.99,561.017 L 82.179,561.293 L 81.422,561.145 L 75.317,557.856 L 72.023,554.864 L 69.389,553.151 L 68.84,553.775 L 68.305,554.231 L 66.661,554.864 L 66.514,554.908 L 66.503,554.717 L 66.672,554.019 L 66.746,553.711 L 65.8,553.531 L 63.812,553.279 L 63.443,553.416 L 60.391,555.203 L 60.264,555.307 L 60.211,555.372 L 60.222,555.455 L 59.788,555.455 L 57.886,556.193 L 54.863,557.412 L 54.096,557.769 L 53.821,557.96 L 53.257,558.572 L 53.044,558.923 L 52.516,559.46 L 52.336,559.587 L 50.994,560.359 L 50.379,560.695 L 46.108,561.933 L 39.024,563.18 L 34.673,562.885 L 33.346,562.728 L 26.304,560.527 L 25.825,560.244 L 24.424,558.064 L 24.424,557.948 L 24.508,557.78 L 25.857,555.823 L 26.286,555.37 L 26.509,555.254 L 27.017,555.233 L 27.291,555.106 L 27.539,554.851 L 28.751,553.572 L 34.569,544.153 L 36.066,539.025 L 36.045,538.379 L 35.468,534.162 L 33.486,532.849 L 32.017,533.789 L 30.551,533.81 L 30.414,533.778 L 28.61,532.732 L 28.373,532.509 L 25.273,529.433 L 19.665,526.005 L 17.884,523.934 L 14.537,518.363 L 14.107,517.402 L 13.77,516.631 L 12.59,513.713 L 11.071,507.634 L 11.388,504.629 L 13.397,497.463 L 15.86,495.392 L 15.545,491.162 L 15.725,489.83 L 15.736,489.733 L 15.894,489.512 L 23.349,484.712 L 23.708,483.802 L 24.896,481.277 L 25.334,481.119 L 26.291,480.875 L 28.488,482 L 31.316,481.269 L 32.759,481.375 L 32.051,480.297 L 31.591,479.484 L 31.402,478.955 L 30.687,476.292 L 30.361,474.959 L 32.243,474.514 L 34.404,476.452 L 34.483,476.534 L 35.204,477.595 L 40.035,476.855 L 44.709,475.257 L 45.994,476.621 L 46.132,476.821 L 49.959,478.407 L 53.132,479.285 L 56.139,478.355 L 56.901,478.491 L 57.457,478.618 L 56.554,477.074 L 55.597,475.299 L 55.481,469.326 L 58.721,467.242 L 59.091,467.516 L 61.491,469.122 L 62.173,468.911 L 64.574,467.812 L 66.444,460.061 L 66.676,458.707 L 68.844,459.045 L 69.552,459.098 L 71.266,458.264 L 71.455,458.125 L 72.539,457.003 L 73.417,455.905 L 76.012,455.469 L 81.278,454.277 L 82.924,453.821 L 83.934,452.806 L 84.007,452.722 L 84.372,451.273 L 84.476,450.797 L 84.752,450.215 L 85.015,450.088 L 85.507,450.109 L 85.57,450.382 L 85.57,450.838 L 85.507,452.401 L 85.475,452.804 L 88.437,452.825 L 90.039,452.475 L 90.858,452.233 L 93.633,451.377 L 94.982,450.656 L 95.171,450.319 L 95.69,448.215 L 95.711,446.639 L 95.625,445.17 L 96.097,444.163 L 96.583,443.678 L 98.518,443.615 L 100.596,444.303 L 100.856,444.07 L 101.745,443.67 L 114.849,439.006 L 115.31,438.594 L 116.381,437.219 L 116.732,436.365 L 116.561,434.777 L 116.276,434.462 L 115.31,433.649 L 115.955,433.797 L 116.276,433.797 L 117.838,433.215 L 117.954,433.172 L 120.344,431.026 L 121.597,429.229 L 121.036,424.259 L 121.49,423.709 L 123.89,421.636 L 124.333,421.405 L 125.623,421.658 L 127.966,423.329 L 127.468,424.079 L 127.034,424.948 L 126.491,426.501 L 126.404,426.894 L 126.393,427.181 L 126.468,427.654 L 128.773,428.258 L 129.888,428.544 L 134.816,431.336 L 135.07,431.556 L 135.33,431.853 L 135.879,433.249 L 135.868,433.811 L 135.637,435.924 L 135.562,436.126 L 135.194,436.508 L 135.14,437.16 L 135.072,438.081 L 135.277,439.032 L 135.562,439.497 L 136.176,440.26 L 136.446,440.558 L 137.912,441.983 L 139.364,443.53 L 139.765,443.964 L 139.898,445.527 L 139.597,447.038 L 142.245,446.117 L 143.517,446.458 L 144.205,447.082 L 145.208,448.327 z "><title>Rheinland-Pfalz</title></path>
</svg>
