<?xml version="1.0" encoding="UTF-8"?><svg id="Ebene_1" xmlns="http://www.w3.org/2000/svg" viewBox="0 0 761.42 383.68"><defs><style>.cls-1{fill:#ffffff;}.cls-2{fill:#ffffff;}</style></defs><path class="cls-2" d="M686.19,309.36c-.6,0-1.25.89-1.99.28-.23-.49.12-.64.46-.69.58-.07,1.12-.03,1.53.4Z"/><path class="cls-2" d="M697.92,39.25c.21.31.52,0,.21-.21l.35.36c.05.05.14.11.19.19s.12.15.2.19c.25.1.18.37-.06.38l-.34-.38-.19-.19-.36-.35Z"/><path class="cls-2" d="M125.62,371.85c6.42,0,13.34-2.93,13.37-9.48l.03-6.19h-42.92s.02-11.82.02-11.82h58.41s-.06,14.52-.06,14.52c-.01,3.42-.55,6.68-1.55,9.9-1.54,5.35-4.96,9.6-10.13,11.84-4.39,1.9-9.03,2.98-14.05,2.99l-54.42.08c-4.85,0-9.28-.79-13.76-2.16-11.16-3.39-15.29-13.22-15.29-24.55l.02-21.87c0-9.38,3.1-18.94,11.85-22.94,5.14-2.35,10.66-3.51,16.48-3.51l50.39.02c6.81,0,13.34,1.27,19.3,4.18,8.46,4.13,10.72,11.87,10.12,21.38h-14.9c0-3.17.34-6.27-1.06-9.06-1.12-2.24-3.81-3.17-6.24-3.63-5.42-1.02-10.68-1.08-16.29-1.09l-36.42-.05c-3.74,0-7.21.19-10.64,1.4-4.14,1.46-6.99,4.95-6.99,9.49v29.86c.01,7.25,7.32,10.67,14.59,10.67h50.14Z"/><polygon class="cls-2" points="453.84 382.84 433.98 382.95 360 324.17 359.99 382.88 344.53 382.9 344.52 309.27 364.23 309.27 438.18 368 438.22 309.25 453.82 309.26 453.84 382.84"/><polygon class="cls-2" points="315.42 350.95 247.08 350.97 247.08 371.21 318.57 371.2 318.58 382.94 231.65 382.93 231.66 309.26 318.2 309.25 318.23 321.22 247.07 321.22 247.08 339.22 315.41 339.21 315.42 350.95"/><rect class="cls-2" x="155.09" y="338.35" width="73.81" height="15.58" transform="translate(-154.18 538.09) rotate(-89.99)"/><rect class="cls-2" y="309.24" width="15.5" height="73.72"/><path class="cls-1" d="M566.82,368.27l-65.1-.05-10.5,14.67-17.78-.07,52.7-73.55,16.19.06,52.76,73.5-17.84.12-10.42-14.68ZM558.35,356.49l-24.14-33.82-24.06,33.77,48.2.05Z"/><rect class="cls-1" x="615.72" y="309.25" width="15.52" height="73.7"/><path class="cls-1" d="M761.41,382.8l-15.65-.25-.02-27.08h-54.31s-5.53.27-5.53.27c-.02-.25-.26-.34-.47-.28-.19.06-.27.21-.27.34l-1.98.39c.03-.49-.41-.28-.41.11-3.53.44-5.73,3.17-6.09,6.75l-.12,19.84h-14.88s-.03-20.11-.03-20.11c-.14-5.43,2.58-9.92,7.86-12.42-5.35-2.07-8.88-6.3-8.86-11.84l.03-11.33c.46-4.17,1.43-8.38,4.49-11.36,3.41-3.32,7.99-5.01,12.63-5.5l6.4-.67c.74.61,1.39-.28,1.99-.28l75.23-.09v73.53ZM693.35,343.67h52.36s0-22.44,0-22.44l-53.12-.03-12.07,1.5c-2.04.65-3.93,2.12-4.09,4.37-.26,3.56-.43,7.12.05,10.68.76,5.55,10.68,5.96,16.88,5.92Z"/><path class="cls-2" d="M761.41,382.8c0,.38-.28.63-.54.7h-14.59c-.37-.16-.52-.52-.52-.96l15.65.25Z"/><path class="cls-2" d="M685.91,355.73c-.12.45-.55.44-.74.06,0-.12.08-.28.27-.34.21-.06.46.03.47.28Z"/><path class="cls-2" d="M683.18,356.18l-.41.11c0-.39.44-.6.41-.11Z"/><path class="cls-2" d="M616.97,122.06c5.61,2.41,10.38,5.25,14.7,9.34,12.2,11.53,18.77,29.5,21.44,46.53l-16.17-6.11c-38.45-14.52-77.75-17.71-112.62,6.94-5.63,3.98-10.65,8.17-14.68,13.74-8.99,12.45-8.4,26.05-1.59,40.63-57.46-53.37-57.01-144.02.6-197.01C532.77,13.96,564.82.67,598.49.04c35.18-.89,70.13,11.72,96.06,35.91-6.69-3.12-12.43-5.76-19.4-6.51-6.46-.69-12.61-.6-19.14.31-27.36,3.83-57.29,18.19-80.28,33.34l-12.31,9.26c-2.44,1.83-4.19,4.55-5.19,7.45-1.33,3.87-.11,7.79,2.28,11.01,5.76,7.79,20.2,15.71,29.47,19.68l27,11.57Z"/><path class="cls-2" d="M704.15,46.48l-.44-.41c-.21-.19-.07-.74.12-.77.18-.02.59.37.64.6.19.27.26.38.11.14,34.21,38.25,43.4,93.31,23.43,140.66l-8.85,4.18c-10.4,4.91-25.83,3.04-37.13-.35-8.58-2.58-16.57-6.21-24.18-10.69l10.43-9.56c15.24-13.96,29.05-29.85,37.49-48.89,8.2-18.51,9.93-38.71,5.01-58.33-1.46-5.83-3.28-11.19-6.55-16.27l-.08-.31Z"/><path class="cls-1" d="M672.19,250.65c-18.08,10.77-37.96,17.06-58.65,18.76l.44-17.65.11-20.35c1.45-21.29,21.55-39.69,39.22-50.22l2.46,18.77c1.77,11.79,4.39,23.1,8.64,34.21,2.15,5.62,4.46,10.78,7.79,16.46Z"/><path class="cls-2" d="M694.62,36.34c-.27-.14-.18-.48.1-.5.18.3.31.42.36.45.79.56,1.77,1.28,2.16,2.24-1.23-.42-1.83-1.06-2.38-1.86-.09-.14-.13-.27-.24-.33Z"/><path class="cls-2" d="M702.62,44.55c-.45-.45-1.06-.77-1.24-1.91.81.31,1.05,1.04,1.58,1.53l.16.15c.08.07.16.15.22.25.03.05.09.12.24.23.17.14-.26.15-.2.31l-.31-.32c-.11.02-.25-.02-.35-.11l-.12-.12Z"/><rect class="cls-2" x="701.03" y="42.15" width=".27" height=".27" transform="translate(175.46 508.18) rotate(-45)"/><rect class="cls-2" x="700.26" y="41.39" width=".27" height=".27" transform="translate(175.78 507.41) rotate(-45)"/></svg>
