<?xml version="1.0" encoding="UTF-8"?>
<svg xmlns="http://www.w3.org/2000/svg" viewBox="-23.746 235.852 279.282 269.532" role="img" aria-label="Nordrhein-Westfalen">
  <path fill="#ffffff" stroke="rgba(1, 97, 191, 0.22)" stroke-width="1.4" stroke-linejoin="round" stroke-linecap="round" d="M 231.536,350.825 L 230.242,353.004 L 226.397,357.612 L 223.158,362.93 L 218.694,366.419 L 214.381,369.898 L 213.726,370.944 L 213.128,371.949 L 212.536,372.045 L 209.775,371.865 L 209.157,371.664 L 208.883,371.484 L 208.714,371.241 L 208.148,369.613 L 208.862,367.838 L 207.683,365.882 L 204.759,364.646 L 203.59,364.699 L 201.37,365.249 L 199.778,365.787 L 196.924,367.005 L 196.241,367.692 L 196.241,368.136 L 196.421,368.792 L 198.938,372.936 L 199.483,373.063 L 199.79,373.231 L 199.833,373.456 L 200.045,374.81 L 199.22,377.262 L 199.073,377.316 L 195.633,377.093 L 191.466,377.189 L 187.696,378.193 L 182.716,379.726 L 179.761,381.608 L 178.677,382.316 L 177.583,383.67 L 174.972,387.424 L 174.4,388.278 L 176.467,391.167 L 176.684,391.378 L 176.993,391.482 L 177.748,391.525 L 177.853,391.492 L 178.816,390.838 L 183.383,388.787 L 184.085,388.724 L 185,388.745 L 185.855,389.909 L 185.971,390.163 L 186.716,396.581 L 186.875,398.622 L 186.801,399.002 L 186.527,399.657 L 183.693,405.874 L 180.505,407.101 L 180.067,407.123 L 178.947,406.856 L 178.189,406.55 L 176.488,406.275 L 173.675,406.095 L 173.527,406.21 L 172.263,406.687 L 172.137,406.761 L 171.37,407.407 L 170.842,407.862 L 170.404,408.497 L 170.404,408.686 L 170.499,408.992 L 171.562,412.269 L 172.234,413.728 L 172.605,414.606 L 172.128,415.335 L 171.741,415.706 L 170.748,416.571 L 169.309,418.126 L 168.455,419.057 L 168.37,419.216 L 168.381,419.459 L 168.647,419.83 L 168.488,419.765 L 167.89,419.776 L 167.794,419.832 L 167.393,420.062 L 167.34,420.187 L 166.742,422.78 L 162.455,429.251 L 161.328,430.456 L 161.212,430.584 L 160.668,430.699 L 160.487,430.647 L 156.405,428.49 L 156.216,428.427 L 155.244,428.397 L 155.047,428.427 L 154.848,428.594 L 145.363,437.857 L 145.781,438.863 L 146.173,439.688 L 146.944,441.199 L 147.744,442.32 L 147.925,443.27 L 147.872,443.621 L 145.866,447.345 L 145.133,448.337 L 144.123,447.091 L 143.435,446.467 L 142.165,446.126 L 139.511,447.047 L 139.818,445.535 L 139.68,443.972 L 139.279,443.538 L 137.825,441.991 L 136.361,440.566 L 136.091,440.268 L 135.478,439.506 L 135.193,439.041 L 134.986,438.09 L 135.06,437.169 L 135.107,436.516 L 135.478,436.134 L 135.552,435.932 L 135.783,433.819 L 135.795,433.258 L 135.243,431.862 L 134.984,431.565 L 134.731,431.345 L 129.803,428.553 L 128.688,428.267 L 126.382,427.663 L 126.308,427.189 L 126.32,426.902 L 126.403,426.509 L 126.948,424.957 L 127.384,424.088 L 127.879,423.338 L 125.543,421.667 L 124.248,421.414 L 123.803,421.644 L 121.404,423.717 L 120.949,424.267 L 121.512,429.237 L 120.258,431.034 L 117.868,433.18 L 117.752,433.223 L 116.192,433.805 L 115.869,433.805 L 115.223,433.657 L 116.192,434.47 L 116.477,434.786 L 116.646,436.374 L 116.297,437.228 L 115.223,438.603 L 114.763,439.015 L 101.657,443.679 L 100.769,444.08 L 100.51,444.312 L 98.432,443.624 L 96.496,443.687 L 96.012,444.173 L 95.541,445.179 L 95.624,446.648 L 95.603,448.224 L 95.084,450.328 L 94.894,450.665 L 93.55,451.385 L 90.77,452.241 L 89.951,452.483 L 88.349,452.834 L 85.388,452.813 L 85.42,452.411 L 85.483,450.848 L 85.483,450.392 L 85.42,450.119 L 84.928,450.098 L 84.663,450.225 L 84.389,450.807 L 84.283,451.283 L 83.92,452.732 L 83.846,452.816 L 82.836,453.832 L 81.19,454.288 L 75.925,455.479 L 73.328,455.916 L 72.45,457.013 L 71.366,458.135 L 71.176,458.274 L 69.464,459.108 L 68.761,459.055 L 66.588,458.717 L 66.36,460.071 L 64.482,467.822 L 62.084,468.922 L 61.4,469.132 L 59,467.523 L 58.629,467.25 L 55.388,469.334 L 55.505,475.306 L 56.462,477.082 L 57.364,478.626 L 56.809,478.499 L 56.048,478.362 L 53.039,479.293 L 49.867,478.415 L 46.039,476.829 L 45.9,476.628 L 44.617,475.264 L 39.943,476.862 L 35.11,477.602 L 34.396,476.542 L 34.311,476.46 L 32.149,474.522 L 30.267,474.967 L 30.595,476.3 L 31.309,478.963 L 31.498,479.493 L 31.964,480.306 L 32.667,481.384 L 31.224,481.278 L 31.532,480.074 L 31.52,479.959 L 31.055,479.069 L 28.613,476.206 L 28.503,474.186 L 29.09,473.169 L 29.418,472.376 L 29.962,469.87 L 30.046,469.162 L 29.962,468.053 L 29.772,467.597 L 28.069,464.699 L 27.586,463.962 L 26.469,463.241 L 26.269,462.97 L 26.02,462.744 L 23.472,462.302 L 22.272,462.323 L 22.145,462.366 L 21.626,462.724 L 20.67,463.137 L 20.573,463.158 L 20.469,463.114 L 18.502,460.346 L 18.185,459.794 L 17.695,458.218 L 17.632,456.706 L 17.717,456.451 L 21.01,453.344 L 21.808,449.729 L 18.356,448.821 L 17.463,447.677 L 17.621,447.614 L 18.736,447.18 L 17.954,446.44 L 17.482,445.773 L 16.494,444.146 L 16.24,443.628 L 16.125,443.172 L 14.776,439.757 L 14.448,439.45 L 14.262,439.335 L 9.806,436.84 L 7.136,432.377 L 8.754,427.195 L 8.984,426.446 L 9.983,426.053 L 11.013,425.747 L 11.416,425.79 L 11.5,426.062 L 12.532,426.583 L 13.595,424.003 L 13.509,423.263 L 13.202,422.902 L 12.942,422.375 L 12.87,421.87 L 13.308,420.389 L 13.392,420.186 L 13.763,419.831 L 13.89,419.564 L 13.942,419.193 L 13.161,418.856 L 11.818,418.295 L 9.408,417.429 L 9.28,416.05 L 9.344,414.646 L 9.931,413.41 L 10.216,412.542 L 10.184,412.438 L 9.665,412.354 L 5.731,412.038 L 3.194,412.65 L 2.3,411.613 L 0.888,408.496 L 0.275,405.481 L 0.254,404.962 L 0.317,404.889 L 3.351,403.545 L 9.6,401.524 L 17.477,396.239 L 18.467,393.375 L 20.844,392.37 L 21.247,392.189 L 20.295,391.342 L 19.222,391.766 L 17.519,392.517 L 17.023,392.855 L 16.907,393.045 L 16.707,393.245 L 16.341,393.403 L 16.014,393.52 L 15.57,393.532 L 15.366,393.51 L 14.889,393.373 L 14.349,392.305 L 14.259,389.08 L 15.447,385.634 L 22.665,376.541 L 25.002,374.004 L 24.013,370.43 L 24.649,367.248 L 25.162,365.661 L 25.489,363.409 L 25.501,362.755 L 25.015,358.788 L 24.354,357.415 L 21.774,353.165 L 21.083,352.668 L 17.819,348.914 L 18.058,347.846 L 17.899,343.343 L 14.701,341.863 L 14.342,341.409 L 14.29,341.3 L 12.415,335.052 L 10.929,328.031 L 12.456,325.535 L 16.866,323.569 L 19.054,323.665 L 23.939,323.01 L 25.889,321.73 L 30.828,321.943 L 31.076,321.996 L 31.784,322.335 L 32.455,322.769 L 35.436,324.693 L 37.381,326.385 L 38.653,327.114 L 39.089,327.177 L 38.02,323.656 L 37.973,323.34 L 38.253,322.409 L 38.422,322.43 L 40.538,323.338 L 45.39,323.391 L 46.305,322.906 L 47.781,322.124 L 50.687,320.992 L 56.445,319.025 L 57.065,318.879 L 57.561,319.186 L 57.878,319.694 L 59.316,321.132 L 59.348,321.153 L 60.025,320.91 L 61.256,320.097 L 62.486,319.242 L 63.752,317.921 L 66.411,314.494 L 66.675,313.87 L 66.696,313.648 L 66.592,312.284 L 66.397,311.513 L 61.897,307.686 L 59.507,306.407 L 60.982,302.908 L 62.521,300.454 L 68.214,298.627 L 68.77,298.552 L 69.552,297.813 L 69.938,297.413 L 70.351,295.783 L 70.509,294.97 L 72.349,292.991 L 80.026,288.191 L 82.564,286.691 L 84.668,286.617 L 85.36,285.624 L 85.583,285.358 L 86.186,284.798 L 88.323,284.321 L 90.914,284.605 L 92.209,284.69 L 97.204,284.956 L 98.093,283.919 L 98.501,283.338 L 99.304,283.254 L 100.325,283.148 L 101.366,282.598 L 101.633,282.101 L 101.976,281.425 L 102.59,280.896 L 106.307,278.148 L 110.514,275.557 L 112.212,274.583 L 112.477,274.553 L 112.798,274.532 L 115.112,273.381 L 116.917,270.197 L 117.043,269.52 L 115.663,268.78 L 114.986,268.314 L 115.452,266.803 L 115.832,265.998 L 116.43,264.963 L 117.214,263.989 L 117.448,264.093 L 122.054,265.903 L 122.207,266.061 L 122.406,266.326 L 122.935,267.446 L 124.49,271.896 L 129.565,274.984 L 131.774,275.323 L 133.101,274.731 L 133.366,274.562 L 134.936,274.18 L 137.722,275.882 L 138.678,277.564 L 139.376,280.101 L 137.272,282.343 L 137.176,282.724 L 137.134,283.189 L 137.208,283.781 L 137.365,283.981 L 138.729,285.377 L 137.677,286.086 L 134.944,291.899 L 134.933,292.015 L 135.096,292.787 L 135.403,293.78 L 135.689,294.265 L 136.92,295.143 L 136.983,295.174 L 139.309,295.629 L 141.276,297.458 L 141.466,301.603 L 138.278,302.575 L 134.584,303.804 L 133.646,304.512 L 133.603,304.65 L 133.879,304.65 L 135.284,306.944 L 135.527,307.949 L 136.558,308.487 L 138.36,309.251 L 139.507,309.684 L 140.136,308.753 L 140.529,308.225 L 142.8,306.491 L 142.97,306.48 L 144.497,306.596 L 145.539,306.743 L 146.633,307.029 L 146.935,307.652 L 149.205,306.246 L 150.802,305.877 L 154.825,302.971 L 156.526,301.342 L 157.906,300.316 L 158.51,300.401 L 161.433,301.024 L 163.876,301.913 L 166.89,302.23 L 166.646,301.511 L 166.53,300.94 L 166.585,300.603 L 166.923,300.116 L 167.351,299.716 L 169.561,298.245 L 169.731,298.182 L 170.377,298.225 L 170.741,298.162 L 171.27,297.908 L 171.501,297.718 L 172.511,296.66 L 172.987,296.067 L 173.629,295.221 L 172.386,294.575 L 171.176,294.184 L 170.816,294.163 L 170.539,294.047 L 169.756,293.359 L 169.211,292.344 L 169.126,292.111 L 170.242,287.661 L 170.722,286.688 L 170.484,283.357 L 170.631,281.601 L 169.07,276.982 L 166.892,275.3 L 161.678,271.377 L 161.028,268.174 L 160.533,267.096 L 160.944,266.831 L 161.382,266.926 L 163.751,267.55 L 164.058,267.857 L 164.027,268.048 L 164.524,268.555 L 167.88,268.3 L 168.858,268.163 L 170.398,266.851 L 170.502,266.512 L 170.697,265.201 L 170.836,263.794 L 173.943,261.404 L 177.025,262.917 L 182.93,259.852 L 185.055,261.511 L 185.784,262.209 L 186.007,262.778 L 186.054,263.086 L 185.784,264.43 L 186.021,272.052 L 186.202,273.522 L 186.742,273.914 L 188.582,274.708 L 195.311,274.645 L 200.423,273.502 L 200.613,273.429 L 203.509,269.664 L 205.636,266.884 L 206.391,265.478 L 207.972,263.416 L 210.308,263.965 L 213.016,265.193 L 213.226,265.87 L 213.276,266.082 L 211.477,270.175 L 212.392,272.51 L 212.307,273.208 L 212.118,273.693 L 210.627,276.75 L 209.822,278.283 L 209.695,278.398 L 208.951,279.086 L 208.164,279.54 L 206.964,279.709 L 205.996,280.185 L 204.971,280.863 L 204.31,281.317 L 202.046,286.096 L 202.555,287.65 L 202.718,287.777 L 203.004,287.893 L 204.563,288.327 L 206.573,289.132 L 209.122,290.823 L 209.059,291.055 L 207.07,295.971 L 205.619,295.95 L 203.323,294.744 L 205.236,297.283 L 208.688,299.936 L 212.152,300.603 L 213.083,300.929 L 213.311,301.034 L 213.839,301.615 L 214.178,302.59 L 213.893,304.81 L 215.241,306.037 L 216.155,307.623 L 216.017,307.739 L 215.515,308 L 215.05,308.666 L 215.017,308.909 L 214.986,310.707 L 215.26,316.913 L 215.889,318.446 L 221.541,322.538 L 222.419,323.024 L 223.428,322.865 L 223.491,322.834 L 223.83,322.888 L 224.893,323.458 L 224.956,323.543 L 225.427,324.367 L 225.766,325.668 L 225.723,326.272 L 225.576,327.287 L 225.063,329.709 L 224.831,329.856 L 225.841,329.221 L 226.18,329.021 L 226.798,328.809 L 227.011,328.82 L 227.454,328.936 L 228.933,329.487 L 229.495,329.814 L 231.27,331.588 L 231.249,334.992 L 230.008,338.038 L 228.199,343.609 L 227.337,350.841 L 227.797,351.179 L 228.071,351.252 L 228.282,351.252 L 229.889,351.21 L 230.027,351.189 L 230.482,350.946 L 230.545,350.925 L 231.132,350.736 L 231.362,350.725 L 231.536,350.825 z "><title>Nordrhein-Westfalen</title></path>
</svg>
