<?xml version="1.0" encoding="UTF-8"?>
<svg xmlns="http://www.w3.org/2000/svg" viewBox="70.851 517.497 253.862 277.313" role="img" aria-label="Baden-Württemberg">
  <path fill="#ffffff" stroke="rgba(1, 97, 191, 0.22)" stroke-width="1.4" stroke-linejoin="round" stroke-linecap="round" d="M 207.429,563.138 L 208.402,563.52 L 208.598,563.552 L 213.546,563.573 L 214.841,563.329 L 215.444,563.191 L 216.625,562.833 L 217.201,562.507 L 219.623,559.428 L 219.549,559.196 L 218.983,558.393 L 219.676,557.271 L 220.94,555.444 L 223.918,555.889 L 226.25,556.626 L 227.729,556.354 L 228.405,555.519 L 228.618,554.978 L 228.088,554.481 L 228.845,551.171 L 228.407,549.482 L 227.377,547.725 L 226.468,547.493 L 226.114,548.065 L 226.261,548.593 L 226.218,550.223 L 225.902,550.304 L 225.173,550.378 L 224.554,550.294 L 223.671,548.95 L 222.165,546.415 L 221.688,544.553 L 221.688,543.983 L 221.814,543.74 L 222.079,543.624 L 222.514,543.569 L 224.766,543.316 L 230.333,543.053 L 231.574,543.56 L 232.234,542.514 L 232.636,541.985 L 232.816,541.826 L 234.112,541.688 L 234.343,541.752 L 234.566,541.94 L 234.846,542.206 L 234.93,542.406 L 234.919,542.671 L 234.75,543.252 L 234.709,543.634 L 234.772,543.845 L 235.005,544.244 L 235.29,544.49 L 237.857,546.16 L 238.123,546.276 L 238.351,546.285 L 238.489,546.201 L 242.757,542.067 L 243.978,541.497 L 244.123,542.478 L 243.492,548.463 L 243.429,548.77 L 242.879,549.045 L 242.769,549.13 L 242.388,550.516 L 242.89,551.245 L 244.332,552.026 L 244.872,551.95 L 245.755,551.528 L 248.408,550.017 L 252.616,548.568 L 253.721,548.187 L 255.429,549.879 L 256.12,550.587 L 258.488,558.952 L 258.72,559.943 L 260.439,562.649 L 260.729,562.598 L 261.195,562.554 L 261.46,562.618 L 261.575,562.891 L 262.267,565.123 L 262.299,565.238 L 262.457,566.326 L 262.299,570.52 L 262.267,570.637 L 262.099,571.029 L 261.692,571.466 L 261.553,572.141 L 262.363,572.955 L 262.553,573.062 L 264.08,573.418 L 268.131,573.164 L 268.488,573.039 L 270.646,570.628 L 270.835,570.417 L 271.369,569.485 L 270.739,569.336 L 270.079,568.746 L 269.836,568.419 L 269.889,568.333 L 271.412,566.887 L 271.75,566.789 L 272.876,567.003 L 273.542,568.11 L 274.351,569.896 L 274.637,571.25 L 274.245,571.621 L 274.022,572.095 L 273.979,572.284 L 274.032,572.907 L 275.044,574.229 L 275.191,574.283 L 276.371,578.207 L 277.507,580.49 L 278.132,582.179 L 278.057,582.393 L 277.783,582.858 L 277.102,583.165 L 274.816,583.237 L 274.5,583.861 L 274.204,587.392 L 274.247,587.678 L 274.342,588.016 L 276.309,592.353 L 276.849,593.207 L 275.892,595.914 L 275.681,602.14 L 275.712,602.31 L 276.002,602.66 L 278.593,604.428 L 280.089,605.208 L 281.808,605.939 L 283.88,609.68 L 285.208,616.35 L 284.783,616.553 L 284.636,616.553 L 284.625,617.249 L 284.783,618.286 L 288.966,620.06 L 295.078,624.513 L 295.224,624.869 L 295.943,626.826 L 297.239,628.168 L 297.33,628.286 L 297.816,628.908 L 298.195,630.78 L 298.068,636.942 L 297.719,642.083 L 297.698,642.145 L 296.488,645.289 L 295.796,645.584 L 296.06,648.861 L 296.267,648.84 L 298.804,649.675 L 298.867,650.531 L 299.543,653.099 L 300.174,653.712 L 300.396,653.702 L 300.713,654.334 L 300.373,654.77 L 298.908,656.389 L 296.73,657.086 L 295.72,657.127 L 295.689,657.106 L 295.634,656.861 L 295.74,656.673 L 296.168,656.366 L 297.163,654.197 L 297.108,653.889 L 296.971,653.71 L 296.622,653.456 L 295.01,653.54 L 290.231,654.578 L 289.612,654.375 L 285.567,653.097 L 284.716,655.538 L 284.663,655.763 L 284.609,657.106 L 285.18,657.907 L 286.358,659.557 L 287.665,661.356 L 288.634,667.096 L 288.688,667.7 L 288.602,671.611 L 287.529,672.234 L 286.874,672.319 L 286.298,672.319 L 285.362,671.906 L 284.875,671.971 L 284.633,672.076 L 283.08,672.889 L 283.315,673.394 L 283.517,673.957 L 278.768,678.133 L 276.473,678.617 L 275.327,677.265 L 274.381,676.536 L 271.076,678.418 L 269.485,678.544 L 269.802,679.021 L 269.96,679.728 L 269.675,681.443 L 268.444,683.684 L 268.305,683.895 L 266.799,687.437 L 267.19,689.434 L 268,690.959 L 270.865,695.448 L 271.833,696.38 L 273.055,705.231 L 273.201,706.024 L 273.541,707.779 L 273.843,708.447 L 273.843,708.933 L 274.709,711.734 L 274.958,712.379 L 275.043,712.517 L 275.898,713.438 L 276.717,714.187 L 276.897,717.593 L 276.95,720.566 L 276.685,722.985 L 276.527,723.663 L 275.972,724.222 L 275.57,724.899 L 275.327,726.772 L 275.264,727.797 L 274.603,727.935 L 273.883,728.094 L 273.622,728.253 L 273.453,728.432 L 273.315,728.675 L 273.199,729.152 L 273.157,729.713 L 273.304,730.326 L 273.516,730.724 L 273.765,731 L 274.103,731.274 L 274.902,731.793 L 274.526,733.222 L 274.315,735.018 L 274.294,735.368 L 274.305,735.77 L 274.451,739.248 L 274.922,741.765 L 275.449,742.855 L 275.97,743.5 L 276.419,743.797 L 276.692,744.58 L 275.366,745.773 L 274.355,745.794 L 274.408,749.495 L 276.958,755.731 L 276.946,756.335 L 276.269,758.576 L 275.165,759.602 L 274.974,759.602 L 274.271,759.454 L 273.829,759.707 L 273.179,760.46 L 272.957,760.861 L 272.533,762.011 L 272.606,762.306 L 271.734,758.767 L 271.704,758.66 L 271.376,758.092 L 271.345,758.058 L 268.758,757.551 L 267.421,757.784 L 267.263,757.868 L 267.02,758.111 L 265.967,759.423 L 265.672,759.932 L 260.21,760.026 L 255.432,760.292 L 255.357,760.409 L 249.843,766.013 L 246.725,766.159 L 246.307,766.02 L 246.053,765.832 L 245.947,765.609 L 245.895,765.24 L 243.536,765.048 L 242.294,765.897 L 239.64,767.904 L 237.557,767.904 L 236.718,767.82 L 236.378,767.664 L 236.062,767.482 L 234.629,765.918 L 233.829,764.024 L 233.692,763.159 L 233.305,762.376 L 232.65,761.479 L 232.063,761.003 L 227.147,759.447 L 226.179,759.172 L 225.587,759.143 L 225.175,759.195 L 223.842,759.407 L 223.599,759.45 L 223.071,759.747 L 222.559,759.903 L 222.198,759.882 L 221.933,759.765 L 221.03,759.283 L 219.011,758.179 L 216.313,756.362 L 215.283,755.443 L 214.502,754.649 L 213.979,753.761 L 213.79,753.252 L 213.651,752.396 L 213.749,752.217 L 213.717,751.847 L 213.662,751.743 L 213.045,751.182 L 205.399,746.148 L 203.295,744.805 L 203.03,744.688 L 202.672,744.078 L 202.381,743.853 L 200.861,743.59 L 200.471,744.215 L 200.248,744.709 L 200.236,744.839 L 200.375,745.08 L 202.85,747.649 L 203.611,748.26 L 204.167,748.652 L 207.449,750.893 L 207.576,750.925 L 208.095,750.84 L 208.413,750.874 L 210.072,752.257 L 212.651,757.703 L 213.052,759.298 L 211.461,760.261 L 210.102,760.483 L 207.565,759.449 L 205.271,758.22 L 204.875,757.988 L 204.387,757.842 L 201.924,757.28 L 201.481,757.207 L 199.693,757.016 L 199.409,757.007 L 199.059,757.09 L 197.879,757.555 L 196.699,758.178 L 196.271,758.476 L 195.774,758.941 L 195,759.402 L 193.757,760.013 L 190.849,760.838 L 190.644,760.838 L 189.379,760.086 L 184.791,756.09 L 183.787,757.908 L 183.508,757.949 L 182.936,757.709 L 179.103,756.047 L 179.018,755.752 L 178.008,752.189 L 178.251,751.324 L 178.896,750.604 L 177.755,748.732 L 176.137,747.315 L 173.811,746.566 L 174.065,747.697 L 173.694,748.333 L 173.473,748.607 L 172.547,749.218 L 172.281,749.102 L 171.718,748.245 L 171.4,744.802 L 168.587,744.24 L 167.83,745.308 L 167.406,746.523 L 164.177,747.22 L 162.691,747.485 L 161.607,748.382 L 160.451,749.874 L 157.211,755.465 L 156.725,757.486 L 156.746,757.634 L 157.168,758.363 L 161.129,761.228 L 161.345,761.324 L 165.253,759.717 L 165.113,759.127 L 165.538,758.851 L 166.875,758.291 L 167.481,758.152 L 170.051,757.95 L 170.283,757.964 L 170.646,758.027 L 172.123,760.047 L 172.144,760.355 L 171.748,761.264 L 170.262,764.361 L 169.379,765.303 L 168.828,765.808 L 167.787,765.638 L 167.533,765.101 L 167.734,764.381 L 167.987,764.285 L 168.073,764.117 L 168.019,763.852 L 167.892,763.652 L 167.153,762.846 L 165.874,762.181 L 165.832,762.16 L 164.684,761.895 L 160.936,764.855 L 162.306,766.537 L 162.669,767.098 L 162.69,767.215 L 162.135,767.584 L 160.607,768.093 L 158.768,768.578 L 158.271,768.643 L 151.599,768.091 L 151.229,768.04 L 151.082,767.975 L 150.829,767.837 L 149.211,766.324 L 149.031,766.093 L 148.892,765.766 L 148.892,765.405 L 149.082,764.497 L 149.051,764.381 L 148.838,764.17 L 148.246,763.863 L 146.387,763.366 L 143.177,762.763 L 142.68,762.7 L 142.407,762.763 L 142.211,762.857 L 135.978,766.472 L 135.651,766.801 L 135.504,767.024 L 135.43,767.286 L 135.335,768.143 L 135.144,768.556 L 134.706,768.905 L 134.441,769.01 L 129.832,769.613 L 129.651,769.613 L 125.485,768.694 L 122.123,767.321 L 121.07,765.755 L 120.913,765.609 L 120.548,765.45 L 120.306,765.407 L 116.758,765.536 L 115.324,766.952 L 115.136,767.353 L 114.105,768.453 L 113.591,768.726 L 110.916,769.7 L 107.072,770.789 L 106.797,770.81 L 105.967,770.746 L 105.2,770.431 L 105.053,770.283 L 103.811,768.996 L 103.133,767.885 L 103.388,767.747 L 103.865,767.893 L 106.359,766.878 L 106.371,766.539 L 106.201,765.632 L 105.844,764.658 L 100.053,763.136 L 95.698,757.448 L 95.509,757.14 L 95.35,756.706 L 95.287,756.347 L 94.851,753.514 L 94.937,753.114 L 95.075,752.912 L 96.655,751.662 L 96.887,751.411 L 97.161,751.01 L 97.409,750.399 L 97.547,749.688 L 97.536,749.338 L 97.397,748.801 L 96.431,745.914 L 96.376,745.491 L 96.431,744.666 L 96.536,744.307 L 97.461,742.11 L 98.691,739.255 L 98.915,738.567 L 98.968,738.039 L 98.915,737.47 L 98.575,736.519 L 98.492,736.137 L 98.492,735.449 L 98.619,734.92 L 100.432,730.152 L 102.26,727.603 L 102.737,726.928 L 103.25,725.995 L 103.389,725.498 L 103.368,724.852 L 103.065,723.615 L 102.792,722.982 L 102.327,722.198 L 100.201,719.524 L 100.043,719.293 L 99.959,718.995 L 99.97,718.639 L 100.128,714.314 L 100.18,713.892 L 100.799,710.729 L 100.81,710.263 L 100.915,709.991 L 102.484,706.609 L 102.653,706.29 L 104.841,703.425 L 107.2,700.21 L 107.388,699.787 L 107.716,698.721 L 108.389,696.427 L 109.092,692.727 L 109.175,692.377 L 109.398,691.892 L 109.799,691.413 L 110.271,691.056 L 111.947,690.443 L 112.432,690.148 L 112.639,689.946 L 112.786,689.746 L 112.955,689.376 L 113.04,689.061 L 113.052,688.752 L 112.327,684.86 L 112.23,683.961 L 112.23,683.371 L 112.315,682.66 L 112.454,682.006 L 112.659,681.36 L 114.789,676.15 L 117.095,671.457 L 117.387,671.033 L 117.703,670.346 L 117.807,669.816 L 117.818,669.403 L 117.86,665.831 L 117.788,664.921 L 117.576,663.831 L 117.564,663.357 L 117.607,663.039 L 117.754,662.606 L 120.441,657.364 L 120.588,657.139 L 120.83,656.906 L 122.03,656.399 L 123.5,655.576 L 124.009,655.184 L 128.779,649.685 L 129.522,646.069 L 129.671,645.742 L 129.817,645.596 L 130.304,645.384 L 130.7,645.363 L 133.194,644.728 L 136.678,642.265 L 137.449,641.567 L 138.153,640.712 L 138.586,640.055 L 138.823,639.505 L 139.013,638.713 L 139.28,637.497 L 139.712,636.207 L 140.299,634.547 L 140.65,633.692 L 141.068,632.803 L 141.956,631.163 L 145.323,625.866 L 145.631,625.539 L 145.932,625.37 L 147.935,624.735 L 148.342,624.492 L 149.935,623.257 L 151.008,622.408 L 151.409,621.997 L 151.721,621.542 L 152.007,621.014 L 152.43,620.076 L 152.525,619.757 L 152.6,619.46 L 152.799,618.058 L 152.996,617.159 L 153.45,615.974 L 153.807,615.32 L 154.522,614.259 L 155.501,613.204 L 155.511,613.191 L 156.199,612.346 L 156.647,611.617 L 156.829,611.098 L 159.239,600.811 L 159.081,599.013 L 158.912,599.056 L 158.816,599.056 L 158.795,599.013 L 158.848,598.305 L 159.03,597.694 L 159.313,597.153 L 159.673,596.719 L 160.185,596.277 L 160.736,595.937 L 162.179,595.004 L 162.669,594.562 L 164.431,592.594 L 165.789,591.897 L 165.89,591.686 L 165.944,591.252 L 165.823,590.711 L 165.59,590.356 L 165.242,590.038 L 164.998,589.9 L 163.968,589.549 L 163.756,589.411 L 163.565,589.189 L 163.422,588.807 L 163.391,588.373 L 163.422,588.173 L 163.555,587.848 L 163.779,587.529 L 164.297,587.042 L 164.747,586.736 L 165.189,586.399 L 165.687,585.878 L 166.274,585.014 L 166.654,584.165 L 166.897,583.234 L 166.938,582.666 L 166.886,581.811 L 166.717,579.515 L 167.493,577.421 L 167.504,577.104 L 167.408,576.788 L 167.058,576.387 L 166.704,576.228 L 166.142,576.124 L 165.143,576.154 L 164.483,576.187 L 163.903,576.082 L 163.669,575.977 L 163.41,575.755 L 163.252,575.574 L 163.124,575.33 L 163.113,574.972 L 163.229,574.665 L 163.452,574.434 L 163.688,574.252 L 163.259,571.062 L 163.176,570.447 L 162.08,566.018 L 161.658,565.17 L 161.553,564.864 L 161.51,564.494 L 161.532,564.071 L 161.658,563.572 L 162.059,562.875 L 162.143,561.734 L 162.297,561.65 L 163.343,561.142 L 163.656,561.066 L 163.941,561.045 L 164.94,561.162 L 165.49,561.627 L 166.943,562.897 L 168.984,565.518 L 169.365,566.703 L 169.995,567.559 L 170.909,568.247 L 171.364,568.426 L 171.66,568.512 L 172.597,568.468 L 174.33,567.107 L 174.996,566.018 L 175.1,565.477 L 175.1,564.971 L 174.203,560.909 L 173.573,561.005 L 173.362,560.614 L 173.32,559.8 L 173.617,559.197 L 175.324,558.711 L 179.257,557.728 L 180.225,557.951 L 180.352,558.427 L 179.839,559.419 L 179.734,559.536 L 179.3,559.379 L 179.204,559.188 L 178.839,559.39 L 180.712,567.026 L 182.164,568.016 L 184.47,569.043 L 184.929,569.2 L 191.428,570.479 L 193.819,570.479 L 193.66,571.125 L 193.862,572.372 L 191.535,574.476 L 189.228,575.279 L 187.468,579.022 L 187.092,579.889 L 187.395,580.745 L 187.988,581.389 L 188.467,581.488 L 190.333,581.569 L 190.46,581.539 L 190.715,581.358 L 197.194,575.437 L 196.639,574.592 L 195.9,573.913 L 196.1,573.278 L 196.48,572.572 L 198.066,570.742 L 199.109,570.002 L 199.351,569.886 L 204.994,568.077 L 206.135,568.343 L 207.615,570.068 L 208.53,569.824 L 208.826,569.401 L 208.837,568.977 L 208.272,567.59 L 207.922,567.339 L 206.31,566.471 L 206.849,566.038 L 206.998,565.815 L 207.384,564.833 L 207.294,564.748 L 207.429,563.138 z M 178.262,755.808 L 177.528,753.925 L 177.296,753.723 L 174.747,753.87 L 174.971,756.059 L 175.611,756.577 L 177.677,756.365 L 178.38,756.271 L 178.262,755.808 z "><title>Baden-Württemberg</title></path>
</svg>
