<?xml version="1.0" encoding="UTF-8"?>
<svg xmlns="http://www.w3.org/2000/svg" viewBox="176.020 439.246 375.344 385.012" role="img" aria-label="Bayern">
  <path fill="#ffffff" stroke="rgba(1, 97, 191, 0.22)" stroke-width="1.4" stroke-linejoin="round" stroke-linecap="round" d="M 393.093,474.992 L 394.017,475.181 L 394.702,475.815 L 397.262,478.46 L 397.219,478.885 L 396.996,480.596 L 396.683,482.353 L 397.091,482.648 L 398.248,482.839 L 402.715,484.157 L 404.702,484.909 L 405.161,485.555 L 406.659,487.024 L 407.858,489.676 L 407.795,489.857 L 407.742,489.962 L 407.007,490.531 L 406.061,490.763 L 405.648,491.187 L 404.68,492.373 L 404.829,492.679 L 406.1,493.823 L 409.374,495.567 L 409.628,495.777 L 410.753,496.972 L 412.153,498.684 L 413.164,500.768 L 413.1,501.139 L 412.899,501.731 L 412.224,502.396 L 411.901,503.379 L 411.88,503.885 L 412.069,505.44 L 412.317,506.689 L 412.403,506.878 L 412.953,507.502 L 413.038,507.554 L 413.741,507.335 L 414.248,507.473 L 415.268,508.254 L 416.807,509.85 L 416.492,511.913 L 420.346,512.516 L 423.659,515.879 L 427.771,518.299 L 429.448,518.341 L 430.436,518.497 L 431.859,519.279 L 432.489,520.19 L 435.291,525.021 L 435.228,528.51 L 434.931,528.773 L 434.345,529.471 L 432.114,533.648 L 431.522,535.392 L 431.216,538.755 L 431.063,539.43 L 426.806,542.38 L 426.763,542.654 L 426.806,542.898 L 427.176,544.26 L 427.636,545.011 L 429.533,547.674 L 429.712,547.877 L 429.924,548.004 L 430.405,548.131 L 434.867,549.409 L 435.037,549.482 L 435.438,551.131 L 436.216,556.461 L 438.963,562.391 L 439.92,563.767 L 440.332,564.105 L 439.993,564.497 L 440.931,565.088 L 442.174,565.533 L 442.712,565.588 L 442.84,565.163 L 442.944,565.067 L 443.245,565.088 L 443.553,565.554 L 443.638,565.767 L 443.786,567.151 L 443.881,569.276 L 443.881,569.839 L 443.839,569.955 L 443.225,570.758 L 444.954,573.337 L 451.794,578.761 L 452.101,580.032 L 451.921,580.781 L 453.417,583.531 L 453.899,583.782 L 455.024,584.135 L 460.045,584.873 L 460.712,584.863 L 460.845,584.768 L 460.649,584.195 L 460.279,583.742 L 460.195,583.033 L 460.77,582.961 L 461.616,583.056 L 464.572,583.543 L 464.888,583.614 L 466.438,584.482 L 468.49,586.404 L 470.519,589.05 L 476.361,596.831 L 477.24,598.026 L 478.9,599.516 L 479.827,600.256 L 480.079,600.381 L 480.43,600.394 L 480.502,603.384 L 481.405,604.318 L 482.478,605.067 L 483.331,605.564 L 485.068,606.272 L 485.698,606.084 L 486.396,605.797 L 487.754,605.459 L 488.16,605.438 L 488.637,605.638 L 491.101,607.393 L 492.481,608.482 L 495.679,612.036 L 496.249,612.903 L 496.91,615.174 L 497.908,619.458 L 498.994,620.196 L 503.382,623.127 L 503.584,623.157 L 504.229,623.03 L 504.196,622.134 L 504.059,621.711 L 503.974,621.181 L 504.016,620.273 L 505.491,619.702 L 508.933,619.849 L 509.229,620.028 L 509.404,620.187 L 511.932,622.977 L 512.984,624.321 L 513.734,626.056 L 514.395,627.516 L 515.541,628.835 L 515.891,628.973 L 516.763,628.952 L 518.618,628.879 L 518.93,628.72 L 519.33,628.318 L 519.934,628.333 L 525.715,636.854 L 527.01,639.517 L 526.428,641.748 L 525.744,643.883 L 524.847,645.49 L 526.153,647.763 L 527.332,653.482 L 527.364,655.11 L 526.038,659.646 L 521.448,666.108 L 521.236,666.275 L 519.798,665.918 L 516.892,664.404 L 516.626,664.183 L 511.607,661.022 L 506.248,658.99 L 505.878,660.609 L 505.704,660.936 L 504.932,661.793 L 503.848,662.701 L 503.362,662.931 L 501.377,663.569 L 502.138,664.488 L 502.201,664.592 L 502.893,667.278 L 502.851,667.479 L 501.597,671.371 L 501.333,671.89 L 501.058,672.883 L 501.047,673.263 L 501.09,673.445 L 501.861,674.691 L 501.999,675.157 L 502.02,675.452 L 501.935,675.834 L 500.662,680.813 L 500.472,681.299 L 500.314,681.564 L 500.049,681.837 L 494.988,687.052 L 494.449,687.474 L 490.511,690.096 L 490.148,690.296 L 489.68,690.381 L 484.711,690.444 L 481.903,692.029 L 481.394,692.24 L 480.649,692.378 L 479.427,692.348 L 478.823,692.327 L 478.258,692.455 L 474.331,694.579 L 473.992,694.811 L 473.67,695.149 L 473.489,695.445 L 473.16,696.184 L 472.949,696.567 L 470.635,699.263 L 470.277,699.577 L 469.911,699.822 L 469.488,700.01 L 469.161,700.082 L 467.31,700.178 L 464.456,700.657 L 464.248,700.72 L 463.964,700.92 L 463.742,701.227 L 463.698,701.418 L 463.655,702.106 L 463.571,702.391 L 462.614,704.444 L 461.731,705.542 L 461.552,705.754 L 459.384,707.456 L 456.794,709.593 L 456.284,710.237 L 456.169,710.407 L 456.148,710.683 L 456.424,712.524 L 456.636,713.302 L 456.95,714.002 L 457.591,714.826 L 460.457,717.206 L 462.466,718.854 L 463.275,719.689 L 463.687,720.209 L 463.973,720.728 L 464.046,720.981 L 464.96,724.618 L 465.193,725.072 L 465.454,725.326 L 467.852,725.77 L 468.339,725.98 L 468.56,726.17 L 469.485,727.483 L 471.738,731.025 L 474.551,736.079 L 474.74,736.544 L 474.804,737 L 474.718,737.316 L 472.138,741.904 L 468.401,749.369 L 468.39,749.56 L 468.464,749.772 L 469.013,750.375 L 469.876,751.008 L 473.222,751.262 L 474.189,751.19 L 474.475,751.05 L 475.189,750.543 L 475.347,750.342 L 475.421,750.172 L 475.347,750.058 L 475.579,749.615 L 475.737,749.55 L 476.228,749.509 L 478.203,750.472 L 478.476,750.672 L 479.946,752.553 L 482.092,757.81 L 482.207,758.263 L 482.029,759.014 L 481.727,759.342 L 480.44,760.855 L 478.596,763.731 L 478.495,764.427 L 477.933,768.879 L 477.954,769.025 L 478.091,769.206 L 478.399,769.469 L 478.732,769.577 L 479.028,769.818 L 479.114,770.072 L 479.26,772.356 L 479.249,773.085 L 476.52,776.057 L 476.32,776.161 L 476.139,776.107 L 473.501,775.039 L 472.696,774.67 L 469.752,773.03 L 462.076,767.809 L 461.392,767.14 L 460.625,765.936 L 460.275,764.911 L 460.39,764.552 L 461.116,762.65 L 462.084,761.615 L 459.404,756.043 L 457.928,755.6 L 454.074,754.534 L 453.261,754.534 L 452.838,754.562 L 452.019,754.744 L 448.092,755.6 L 447.785,755.684 L 447.261,756.423 L 446.358,758.359 L 441.526,760.825 L 440.605,760.877 L 438.179,758.422 L 436.377,755.982 L 436.26,755.727 L 431.021,755.158 L 429.227,754.493 L 429.006,754.324 L 429.164,753.868 L 424.374,755.677 L 423.218,752.114 L 423.577,751.479 L 424.025,750.38 L 423.882,749.924 L 423.437,749.32 L 422.93,749.502 L 418.626,753.709 L 418.489,757.178 L 419.646,759.705 L 419.942,760.72 L 420.434,762.665 L 420.445,762.876 L 420.385,763.13 L 420.258,763.331 L 420.1,763.446 L 418.732,763.755 L 415.003,763.66 L 411.752,763.331 L 410.214,762.442 L 407.387,763.236 L 403.796,762.793 L 399.9,763.312 L 396.678,764.559 L 395.5,766.597 L 395.289,766.728 L 394.268,766.652 L 391.476,766.147 L 381.728,766.103 L 380.569,765.901 L 378.794,767.045 L 378.677,767.193 L 377.541,769.665 L 377.424,770.786 L 377.415,771.009 L 377.436,771.2 L 377.551,771.465 L 377.605,772.868 L 376.531,774.012 L 376.289,774.117 L 371.907,775.121 L 368.454,774.793 L 367.792,774.605 L 367.316,774.012 L 367.078,774.117 L 366.836,774.298 L 365.467,775.874 L 365.298,776.253 L 363.59,778.207 L 358.128,783.061 L 357.564,784.055 L 357.395,784.436 L 357.068,785.428 L 356.666,785.938 L 355.877,786.403 L 355.678,786.467 L 352.778,786.764 L 352.534,786.743 L 352.365,786.541 L 352.469,786.108 L 353.565,784.214 L 354.468,783.368 L 354.279,782.978 L 354.132,782.879 L 351.104,782.804 L 347.682,784.149 L 347.323,784.339 L 346.027,785.077 L 342.576,786.802 L 337.274,787.069 L 336.607,787.025 L 335.417,786.793 L 334.788,786.496 L 334.662,785.281 L 334.808,784.804 L 334.894,784.7 L 335.48,784.592 L 335.765,784.34 L 335.66,783.408 L 334.058,781.539 L 331.763,779.157 L 328.5,778.46 L 328.279,778.439 L 327.787,778.199 L 327.649,777.797 L 327.703,776.434 L 328.152,775.992 L 330.114,774.5 L 328.755,772.521 L 326.556,772.776 L 322.669,774.299 L 320.312,773.843 L 315.427,771.865 L 315.216,771.231 L 315.184,770.914 L 315.247,770.726 L 315.162,770.46 L 310.092,769.624 L 308.871,769.52 L 308.067,770.46 L 307.607,771.39 L 307.595,771.56 L 307.003,773.029 L 306.707,773.062 L 303.603,772.924 L 301.149,772.439 L 299.182,771.18 L 298.715,770.841 L 299.151,770.195 L 299.78,769.432 L 300.002,768.417 L 299.96,767.614 L 299.696,767.614 L 297.508,767.952 L 297.371,767.995 L 296.983,768.652 L 297.111,776.22 L 297.771,777.973 L 297.929,778.155 L 298.13,778.219 L 298.547,778.058 L 299.202,778.375 L 299.682,778.924 L 299.754,779.697 L 300.094,783.596 L 296.104,788.955 L 291.254,795.151 L 289.747,796.599 L 286.787,798.441 L 284.032,799.456 L 279.564,800.258 L 279.274,800.25 L 279.157,799.857 L 279.127,799.348 L 279.358,798.441 L 279.595,797.669 L 282.218,791.599 L 282.864,790.786 L 283.597,789.74 L 283.64,789.634 L 283.577,788.779 L 283.091,788.125 L 282.938,788.07 L 279.777,787.72 L 278.915,788.388 L 278.884,789.479 L 278.926,789.869 L 278.661,790.122 L 274.072,791.58 L 272.503,786.549 L 273.052,785.471 L 273.651,785.216 L 273.766,785.121 L 274.465,784.011 L 273.555,782.448 L 272.694,781.285 L 270.781,779.118 L 268.718,778.282 L 267.839,778.526 L 267.317,778.536 L 267.179,778.482 L 266.778,778.069 L 264.674,774.474 L 264.663,773.397 L 264.684,772.731 L 264.873,771.916 L 264.65,772.118 L 262.461,773.311 L 261.711,773.62 L 258.356,773.724 L 254.286,771.781 L 254.243,771.567 L 254.39,771.189 L 254.517,771.083 L 254.661,771.041 L 254.841,770.808 L 255.009,770.493 L 255.115,768.599 L 254.85,767.753 L 253.38,766.854 L 253.233,766.824 L 251.61,766.897 L 250.798,767.522 L 250.154,768.452 L 247.658,771.889 L 243.852,770.695 L 240.66,769.374 L 239.777,768.804 L 239.458,767.957 L 242.112,765.948 L 243.355,765.103 L 245.711,765.292 L 245.764,765.662 L 245.871,765.882 L 246.124,766.073 L 246.541,766.211 L 249.661,766.064 L 255.174,760.46 L 255.249,760.344 L 260.027,760.076 L 265.489,759.995 L 265.785,759.474 L 266.837,758.163 L 267.08,757.92 L 267.239,757.836 L 268.577,757.612 L 271.168,758.111 L 271.194,758.14 L 271.521,758.71 L 271.552,758.816 L 272.424,762.368 L 272.357,762.062 L 272.774,760.908 L 273.155,760.477 L 273.773,759.682 L 274.216,759.428 L 274.919,759.576 L 275.109,759.576 L 276.213,758.551 L 276.89,756.308 L 276.9,755.705 L 274.352,749.471 L 274.298,745.767 L 275.31,745.746 L 276.636,744.553 L 276.362,743.77 L 275.913,743.475 L 275.395,742.83 L 274.866,741.741 L 274.395,739.223 L 274.247,735.744 L 274.236,735.342 L 274.257,734.992 L 274.467,733.197 L 274.844,731.769 L 274.045,731.249 L 273.706,730.975 L 273.458,730.702 L 273.247,730.299 L 273.101,729.689 L 273.142,729.117 L 273.258,728.652 L 273.397,728.409 L 273.566,728.228 L 273.824,728.07 L 274.543,727.911 L 275.205,727.773 L 275.268,726.74 L 275.511,724.878 L 275.912,724.199 L 276.468,723.638 L 276.626,722.962 L 276.891,720.542 L 276.837,717.57 L 276.657,714.165 L 275.838,713.416 L 275,712.497 L 274.915,712.361 L 274.666,711.715 L 273.8,708.914 L 273.8,708.428 L 273.498,707.76 L 273.16,706.008 L 273.012,705.213 L 271.791,696.364 L 270.822,695.433 L 267.959,690.939 L 267.147,689.417 L 266.757,687.418 L 268.264,683.879 L 268.401,683.666 L 269.632,681.425 L 269.918,679.711 L 269.759,679.004 L 269.443,678.525 L 271.036,678.4 L 274.339,676.518 L 275.285,677.247 L 276.432,678.601 L 278.726,678.115 L 283.474,673.939 L 283.273,673.377 L 283.036,672.871 L 284.591,672.055 L 284.835,671.951 L 285.319,671.886 L 286.256,672.3 L 286.833,672.3 L 287.486,672.215 L 288.559,671.591 L 288.644,667.68 L 288.591,667.076 L 287.623,661.337 L 286.317,659.539 L 285.137,657.89 L 284.566,657.087 L 284.62,655.744 L 284.673,655.52 L 285.525,653.077 L 289.57,654.355 L 290.188,654.558 L 294.966,653.522 L 296.579,653.438 L 296.928,653.693 L 297.067,653.873 L 297.121,654.179 L 296.127,656.347 L 295.697,656.654 L 295.593,656.842 L 295.645,657.087 L 295.677,657.108 L 296.686,657.063 L 298.867,656.368 L 300.331,654.749 L 300.669,654.315 L 300.353,653.68 L 300.129,653.694 L 299.501,653.077 L 298.824,650.51 L 298.76,649.656 L 296.223,648.822 L 296.017,648.843 L 295.753,645.564 L 296.444,645.269 L 297.654,642.128 L 297.675,642.065 L 298.024,636.925 L 298.152,630.761 L 297.77,628.89 L 297.285,628.266 L 297.194,628.151 L 295.899,626.808 L 295.18,624.84 L 295.032,624.491 L 288.922,620.039 L 284.739,618.265 L 284.581,617.227 L 284.592,616.531 L 284.739,616.531 L 285.163,616.331 L 283.836,609.659 L 281.764,605.906 L 280.045,605.185 L 278.548,604.405 L 275.959,602.638 L 275.668,602.29 L 275.636,602.12 L 275.848,595.891 L 276.804,593.187 L 276.265,592.331 L 274.299,587.996 L 274.202,587.658 L 274.161,587.371 L 274.457,583.841 L 274.773,583.216 L 277.056,583.143 L 277.74,582.837 L 278.013,582.372 L 278.087,582.16 L 277.463,580.469 L 276.325,578.184 L 275.145,574.264 L 275,574.206 L 273.991,572.887 L 273.936,572.263 L 273.978,572.075 L 274.201,571.598 L 274.594,571.227 L 274.308,569.875 L 273.498,568.088 L 272.832,566.977 L 271.706,566.766 L 271.368,566.862 L 269.846,568.307 L 269.793,568.394 L 270.037,568.721 L 270.695,569.313 L 271.325,569.461 L 270.792,570.391 L 270.602,570.603 L 268.445,573.014 L 268.088,573.141 L 264.037,573.393 L 262.51,573.037 L 262.319,572.93 L 261.511,572.117 L 261.648,571.439 L 262.056,571.007 L 262.225,570.614 L 262.255,570.498 L 262.413,566.302 L 262.255,565.212 L 262.225,565.096 L 261.531,562.867 L 261.416,562.592 L 261.151,562.528 L 260.686,562.571 L 260.395,562.624 L 258.678,559.92 L 258.445,558.926 L 256.077,550.563 L 255.384,549.853 L 253.677,548.165 L 252.573,548.545 L 248.365,549.991 L 245.712,551.503 L 244.829,551.928 L 244.29,552.004 L 242.846,551.219 L 242.345,550.49 L 242.724,549.106 L 242.835,549.019 L 243.386,548.747 L 243.449,548.438 L 244.08,542.456 L 243.936,541.473 L 242.713,542.045 L 238.445,546.179 L 238.308,546.264 L 238.078,546.253 L 237.817,546.136 L 235.249,544.465 L 234.964,544.222 L 234.731,543.821 L 234.668,543.609 L 234.709,543.23 L 234.879,542.648 L 234.89,542.381 L 234.806,542.183 L 234.526,541.916 L 234.302,541.727 L 234.07,541.663 L 232.775,541.801 L 232.595,541.961 L 232.194,542.489 L 231.532,543.537 L 230.292,543.028 L 224.725,543.293 L 222.473,543.548 L 222.039,543.602 L 221.773,543.718 L 221.646,543.959 L 221.646,544.532 L 222.124,546.39 L 223.631,548.927 L 224.514,550.27 L 225.132,550.356 L 225.861,550.282 L 226.178,550.198 L 226.22,548.569 L 226.072,548.041 L 226.426,547.469 L 227.335,547.7 L 228.366,549.457 L 228.804,551.149 L 228.047,554.457 L 228.575,554.957 L 228.364,555.494 L 227.686,556.33 L 226.207,556.604 L 223.876,555.865 L 220.898,555.422 L 219.634,557.249 L 218.942,558.371 L 219.507,559.174 L 219.581,559.407 L 217.16,562.482 L 216.584,562.809 L 215.404,563.168 L 214.8,563.306 L 213.505,563.55 L 208.557,563.529 L 208.36,563.499 L 207.389,563.115 L 206.495,561.478 L 207.312,554.509 L 208.67,550.785 L 209.168,550.545 L 210.791,546.23 L 209.61,540.922 L 209.43,540.796 L 209.199,540.722 L 208.422,540.552 L 208.029,540.531 L 203.674,536.175 L 203.41,535.891 L 203.314,535.499 L 203.198,534.061 L 203.167,533.426 L 203.378,533.372 L 204.293,533.478 L 203.579,532.538 L 203.474,532.304 L 203.094,529.259 L 202.998,527.199 L 202.851,524.345 L 202.474,521.32 L 202.433,521.1 L 202.084,520.622 L 203.663,519.735 L 203.305,515.842 L 203.167,515.567 L 202.851,515.295 L 202.712,515.231 L 202.199,515.073 L 201.618,515.052 L 201.315,515.116 L 200.02,513.997 L 200.669,512.684 L 201.135,510.201 L 201.869,509.015 L 202.388,508.405 L 202.515,508.309 L 215.986,504.606 L 225.682,506.502 L 225.989,506.585 L 226.095,506.713 L 227.954,511.027 L 228.494,511.46 L 228.688,511.46 L 230.037,511.312 L 235.144,510.392 L 235.545,509.208 L 235.545,508.405 L 235.111,507.367 L 234.868,506.14 L 234.197,502.08 L 234.551,498.665 L 235.74,496.137 L 236.83,496.508 L 239.88,497.289 L 240.657,497.268 L 242.248,497.164 L 242.376,497.057 L 242.45,496.635 L 243.386,494.256 L 244.078,492.977 L 244.406,492.436 L 244.532,492.269 L 246.24,491.656 L 246.922,491.656 L 247.018,491.625 L 247.743,491.341 L 249.354,489.881 L 250.123,489.118 L 250.557,488.316 L 250.672,487.924 L 250.757,486.813 L 250.672,485.174 L 250.419,484.611 L 249.727,483.607 L 250.41,482.974 L 250.568,482.645 L 251.132,480.499 L 251.482,478.915 L 255.041,477.877 L 255.803,478.48 L 258.044,479.411 L 259.588,479.232 L 260.788,478.734 L 261.956,478.015 L 263.167,477.035 L 264.759,476.113 L 268.284,472.318 L 269.211,470.943 L 269.676,469.622 L 269.983,467.973 L 269.94,467.212 L 270.221,467.127 L 270.589,466.947 L 271.579,465.964 L 273.392,463.955 L 280.035,463.246 L 280.573,463.299 L 282.414,465.71 L 283.867,467.678 L 288.54,469.633 L 289.085,470.076 L 289.592,470.604 L 292.025,475.754 L 292.419,478.174 L 292.439,478.756 L 292.974,479.507 L 293.143,479.527 L 294.994,479.729 L 295.925,479.306 L 296.809,478.861 L 297.063,479.877 L 297.365,481.061 L 299.648,483.559 L 303.651,485.059 L 306.695,485.757 L 306.431,488.569 L 306.092,492.142 L 306.752,495.017 L 307.176,496.182 L 307.366,496.625 L 309.194,497.07 L 314.428,498.993 L 314.702,498.953 L 314.891,498.866 L 315.34,498.103 L 315.203,496.35 L 315.056,496.286 L 315.018,494.586 L 315.088,494.372 L 315.383,494.15 L 315.964,494.266 L 318.386,494.827 L 321.213,495.473 L 321.499,495.516 L 322.191,495.335 L 322.878,494.87 L 323.018,494.688 L 323.24,494.085 L 323.187,492.711 L 322.774,492.182 L 322.182,491.876 L 320.902,491.454 L 320.28,491.306 L 320.109,491.251 L 314.607,487.363 L 314.236,487.053 L 314.152,486.683 L 313.971,483.628 L 314.184,482.687 L 321.69,479.622 L 328.332,479.579 L 328.489,479.579 L 328.679,479.622 L 329.23,480.183 L 330.368,482.213 L 331.711,483.682 L 335.3,484.317 L 335.701,484.372 L 337.06,483.906 L 338.227,483.409 L 338.608,482.258 L 338.73,482.151 L 339.481,481.982 L 340.375,481.994 L 341.998,483.357 L 343.355,485.725 L 343.313,486.338 L 342.89,486.476 L 342.328,486.887 L 342.007,487.174 L 341.585,487.65 L 341.478,488.231 L 341.576,488.717 L 341.607,488.822 L 342.298,489.837 L 344.513,491.972 L 345.333,491.944 L 345.428,491.805 L 346.364,489.911 L 349.478,489.404 L 351.482,482.531 L 351.482,482.468 L 350.282,474.906 L 349.986,474.071 L 349.543,473.914 L 348.851,473.436 L 348.735,471.301 L 348.735,471.101 L 348.883,470.476 L 349.105,470.222 L 349.534,470.086 L 349.988,470.222 L 350.084,470.382 L 351.602,469.682 L 353.801,467.909 L 354.023,467.158 L 355.107,466.006 L 355.276,465.942 L 356.851,465.731 L 360.327,466.399 L 360.592,466.619 L 360.919,467.097 L 361.484,467.92 L 361.484,468.069 L 361.21,468.747 L 361.141,468.851 L 360.698,468.84 L 360.255,469.495 L 360.107,471.07 L 360.15,473.174 L 360.234,473.736 L 360.339,473.916 L 362.322,475.09 L 364.076,474.878 L 364.627,477.066 L 365.287,478.252 L 366.963,480.125 L 367.551,480.409 L 369.439,479.828 L 369.877,479.414 L 369.898,479.204 L 370.056,478.433 L 370.214,478.179 L 370.372,478.075 L 371.687,477.8 L 372.076,477.991 L 372.36,478.202 L 372.784,478.687 L 373.349,479.215 L 373.645,479.385 L 373.856,479.385 L 386.338,477.671 L 390.444,476.211 L 393.093,474.992 z "><title>Bayern</title></path>
</svg>
