<?xml version="1.0" encoding="UTF-8"?>
<svg xmlns="http://www.w3.org/2000/svg" viewBox="226.760 112.688 83.420 83.375" role="img" aria-label="Hamburg">
  <path fill="#ffffff" stroke="rgba(1, 97, 191, 0.22)" stroke-width="1.4" stroke-linejoin="round" stroke-linecap="round" d="M 250.76,155.304 L 251.21,153.03 L 251.633,151.477 L 251.886,150.579 L 252.611,148.484 L 252.843,148.169 L 253.236,148.148 L 253.139,148.668 L 253.267,149.334 L 254.968,151.405 L 256.022,152.379 L 256.549,152.61 L 257.305,152.24 L 260.831,147.82 L 261.202,147.26 L 261.529,146.698 L 261.518,146.371 L 261.59,145.609 L 262.717,145.546 L 263.959,145.577 L 264.208,145.777 L 265.171,145.988 L 265.673,146.042 L 266.423,146.042 L 271.302,142.268 L 272.108,140.325 L 271.61,139.701 L 273.044,138.76 L 277.327,136.688 L 277.612,136.731 L 277.81,136.815 L 279.096,137.544 L 278.969,138.399 L 278.362,139.816 L 278.506,144.489 L 279.256,145.379 L 280.853,147.546 L 280.625,148.212 L 280.583,148.316 L 279.33,150.98 L 277.273,152.64 L 276.623,153.274 L 276.327,154.46 L 276.39,156.543 L 277.241,158.965 L 277.454,159.165 L 280.949,161.607 L 281.328,161.69 L 281.804,161.627 L 281.667,162.251 L 281.91,163.043 L 285.641,167.051 L 286.18,168.087 L 286.034,168.098 L 285.844,168.193 L 283.623,169.41 L 283.253,169.61 L 283.005,169.864 L 282.814,170.139 L 282.211,171.628 L 281.969,171.883 L 281.782,172.01 L 281.414,172.063 L 278.204,171.925 L 277.822,171.841 L 277.379,171.544 L 274.836,169.145 L 273.076,167.135 L 272.706,166.628 L 272.191,166.047 L 270.431,165 L 269.878,165.74 L 269.274,167.04 L 269.094,167.949 L 266.277,170.021 L 265.853,170.052 L 264.272,168.73 L 262.159,166.721 L 261.414,165.802 L 261.086,165.578 L 260.832,165.737 L 259.548,167.166 L 258.718,167.789 L 258.464,167.904 L 255.054,164.393 L 254.98,163.801 L 254.023,161.571 L 253.193,160.716 L 253.501,158.495 L 253.501,155.673 L 250.76,155.304 z "><title>Hamburg</title></path>
</svg>
