<?xml version="1.0" encoding="UTF-8"?>
<svg xmlns="http://www.w3.org/2000/svg" viewBox="0.194 529.172 117.157 102.399" role="img" aria-label="Saarland">
  <path fill="#ffffff" stroke="rgba(1, 97, 191, 0.22)" stroke-width="1.4" stroke-linejoin="round" stroke-linecap="round" d="M 25.858,560.262 L 26.339,560.548 L 33.381,562.745 L 34.707,562.905 L 39.06,563.202 L 46.144,561.952 L 50.415,560.718 L 51.022,560.377 L 52.371,559.606 L 52.551,559.479 L 53.08,558.939 L 53.291,558.59 L 53.856,557.979 L 54.13,557.79 L 54.896,557.429 L 57.92,556.215 L 59.823,555.474 L 60.257,555.474 L 60.246,555.389 L 60.3,555.326 L 60.427,555.222 L 63.476,553.434 L 63.847,553.296 L 65.834,553.55 L 66.78,553.731 L 66.707,554.037 L 66.537,554.735 L 66.548,554.924 L 66.695,554.883 L 68.34,554.247 L 68.874,553.794 L 69.425,553.172 L 72.057,554.883 L 75.352,557.874 L 81.456,561.163 L 82.213,561.309 L 83.023,561.035 L 84.132,560.454 L 84.561,560.03 L 84.741,560.339 L 85.1,561.068 L 85.56,562.084 L 85.581,562.282 L 85.644,563.118 L 85.769,567.527 L 85.29,572.75 L 83.625,573.26 L 83.243,573.535 L 83.264,573.681 L 83.445,574.676 L 83.592,575.067 L 86.109,576.747 L 86.214,577.571 L 85.941,579.063 L 85.92,579.434 L 90.941,582.307 L 91.666,582.119 L 92.909,581.556 L 93.351,581.94 L 92.749,582.371 L 92.035,586.719 L 92.056,586.814 L 92.633,587.207 L 92.099,589.49 L 91.516,590.335 L 91.142,590.771 L 90.539,591.033 L 89.158,591.722 L 86.299,593.656 L 85.299,594.977 L 85.289,595.137 L 85.257,595.729 L 86.278,598.785 L 87.173,599.979 L 88.97,602.57 L 89.129,602.791 L 89.394,603.005 L 90.373,602.992 L 89.839,603.848 L 85.477,607.349 L 85.123,607.571 L 84.394,607.339 L 83.415,606.599 L 81.963,605.995 L 77.84,605.605 L 77.395,605.709 L 76.734,605.977 L 76.142,606.662 L 75.911,606.547 L 75.068,606.061 L 74.589,605.789 L 73.305,604.55 L 72.342,602.894 L 71.512,605.441 L 69.873,607.057 L 69.206,607.282 L 68.879,607.166 L 68.589,606.88 L 68.388,606.383 L 67.721,602.627 L 67.484,601.201 L 67.558,600.673 L 66.315,598.748 L 64.11,597.067 L 61.775,596.221 L 60.379,595.828 L 56.364,595.374 L 54.931,596.274 L 54.793,596.494 L 55.235,596.875 L 55.812,597.691 L 56.374,599.58 L 56.332,599.891 L 56.163,600.312 L 55.225,601.791 L 53.529,602.089 L 48.005,601.086 L 46.847,599.828 L 46.287,598.474 L 47.728,596.719 L 47.237,595.365 L 45.106,594.139 L 45.18,592.309 L 45.138,592.121 L 43.837,588.917 L 41.907,587.255 L 40.29,586.359 L 39.993,586.05 L 39.047,584.865 L 38.709,584.39 L 37.34,581.863 L 37.266,581.695 L 35.728,575.721 L 35.665,575.287 L 35.769,575.021 L 36.467,574.472 L 37.065,574.324 L 36.659,573.7 L 36.131,573.129 L 35.644,572.758 L 31.352,569.449 L 29.025,568.582 L 27.349,568.932 L 27.006,569.091 L 26.34,569.25 L 25.087,569.174 L 24.595,568.605 L 24.194,562.357 L 24.248,562.168 L 24.512,561.733 L 25.858,560.262 z "><title>Saarland</title></path>
</svg>
