<?xml version="1.0" encoding="UTF-8"?><svg id="Ebene_1" xmlns="http://www.w3.org/2000/svg" viewBox="0 0 273.23 269.41"><defs><style>.cls-1{fill:#039fe2;}.cls-2{fill:#b4b1b2;}</style></defs><path class="cls-2" d="M151.77,122.06c5.61,2.41,10.38,5.25,14.7,9.34,12.2,11.53,18.77,29.5,21.44,46.53l-16.17-6.11c-38.45-14.52-77.75-17.71-112.62,6.94-5.63,3.98-10.65,8.17-14.68,13.74-8.99,12.45-8.4,26.05-1.59,40.63-57.46-53.37-57.01-144.02.6-197.01C67.57,13.96,99.62.67,133.29.04c35.18-.89,70.13,11.72,96.06,35.91-6.69-3.12-12.43-5.76-19.4-6.51-6.46-.69-12.61-.6-19.14.31-27.36,3.83-57.29,18.19-80.28,33.34l-12.31,9.26c-2.44,1.83-4.19,4.55-5.19,7.45-1.33,3.87-.11,7.79,2.28,11.01,5.76,7.79,20.2,15.71,29.47,19.68l27,11.57Z"/><path class="cls-2" d="M238.95,46.48l-.44-.41c-.21-.19-.07-.74.12-.77.18-.02.59.37.64.6.19.27.26.38.11.14,34.21,38.25,43.4,93.31,23.43,140.66l-8.85,4.18c-10.4,4.91-25.83,3.04-37.13-.35-8.58-2.58-16.57-6.21-24.18-10.69l10.43-9.56c15.24-13.96,29.05-29.85,37.49-48.89,8.2-18.51,9.93-38.71,5.01-58.33-1.46-5.83-3.28-11.19-6.55-16.27l-.08-.31Z"/><path class="cls-1" d="M206.99,250.65c-18.08,10.77-37.96,17.06-58.65,18.76l.44-17.65.11-20.35c1.45-21.29,21.55-39.69,39.22-50.22l2.46,18.77c1.77,11.79,4.39,23.1,8.64,34.21,2.15,5.62,4.46,10.78,7.79,16.46Z"/><path class="cls-2" d="M229.42,36.34c-.27-.14-.18-.48.1-.5.18.3.31.42.36.45.79.56,1.77,1.28,2.16,2.24-1.23-.42-1.83-1.06-2.38-1.86-.09-.14-.13-.27-.24-.33Z"/><path class="cls-2" d="M237.42,44.55c-.45-.45-1.06-.77-1.24-1.91.81.31,1.05,1.04,1.58,1.53l.16.15c.08.07.16.15.22.25.03.05.09.12.24.23.17.14-.26.15-.2.31l-.31-.32c-.11.02-.25-.02-.35-.11l-.12-.12Z"/><rect class="cls-2" x="235.83" y="42.15" width=".27" height=".27" transform="translate(39.21 179.24) rotate(-45)"/><rect class="cls-2" x="235.06" y="41.39" width=".27" height=".27" transform="translate(39.53 178.47) rotate(-45)"/></svg>